<svg width="200" height="54" viewBox="0 0 200 54" fill="none" xmlns="http://www.w3.org/2000/svg">
<path d="M77.3594 26.0312C75.9688 26.3281 74.5156 26.5625 72.9844 26.7031C71.4531 26.8437 69.9063 26.9219 68.3438 26.9219H63.1875V16.2031H66.0469V24.3906H68.3438C69.9063 24.3906 71.4375 24.3281 72.9375 24.1875C74.4375 24.0625 75.9063 23.8437 77.3594 23.5312V26.0156V26.0312ZM81.25 39.2969H65.1406V29.8437H81.25V39.2969ZM78.3906 36.8125V32.3437H67.9844V36.8125H78.3906ZM84.625 22.375H81.25V28.9219H78.3906V15.5938H81.25V19.8281H84.625V22.375Z" fill="#003B90"/>
<path d="M100.062 32.9531L98.2812 34.7812C97.0937 33.7969 96.0156 32.7969 95.0312 31.7812C94.0469 30.7812 93.0781 29.6875 92.1406 28.5312C91.2656 29.7344 90.3125 30.875 89.2969 31.9531C88.2812 33.0312 87.1719 34.0625 85.9687 35.0312L84.1094 33.25C85.3437 32.1719 86.4375 31.0781 87.4062 29.9531C88.3594 28.8281 89.25 27.6406 90.0625 26.3906C90.2969 26 90.4687 25.5469 90.5469 25C90.625 24.4531 90.6719 23.9375 90.6719 23.4219V16.4844H93.6094V23.4219C93.6094 23.9375 93.6719 24.4687 93.7969 25.0312C93.9219 25.5937 94.0937 26.0469 94.3125 26.375C95.125 27.5781 95.9844 28.7031 96.9062 29.7656C97.8281 30.8281 98.8906 31.8906 100.078 32.9375L100.062 32.9531ZM105.016 39.5469H102.156V25.0312H97.3125V22.3906H102.156V15.6094H105.016V39.5469Z" fill="#003B90"/>
<path d="M130.641 27.8594H120.578V29.5781H127.688V35.5156H113.406V36.9531H128.203V39.3125H110.547V33.25H124.828V31.9531H110.547V29.5937H117.656V27.875H107.609V25.4844H130.656V27.875L130.641 27.8594ZM126.219 19.8125C126.219 20.5469 126.047 21.2187 125.688 21.8281C125.328 22.4375 124.844 22.9531 124.219 23.3906C123.594 23.8281 122.844 24.1719 121.969 24.4062C121.094 24.6406 120.141 24.7656 119.109 24.7656C118.078 24.7656 117.125 24.6406 116.25 24.4062C115.375 24.1719 114.625 23.8281 114 23.3906C113.375 22.9531 112.891 22.4375 112.531 21.8281C112.172 21.2344 112 20.5625 112 19.8125C112 19.0625 112.172 18.4062 112.531 17.7969C112.875 17.2031 113.375 16.6719 114 16.2344C114.625 15.7969 115.375 15.4531 116.25 15.2187C117.125 14.9844 118.078 14.8594 119.109 14.8594C120.141 14.8594 121.094 14.9844 121.969 15.2187C122.844 15.4531 123.594 15.7969 124.219 16.2344C124.844 16.6719 125.328 17.2031 125.688 17.7969C126.047 18.3906 126.219 19.0625 126.219 19.8125ZM123.328 19.8125C123.328 19.3906 123.219 19.0156 123 18.7187C122.781 18.4062 122.484 18.1562 122.094 17.9531C121.703 17.75 121.25 17.5937 120.75 17.5C120.234 17.4062 119.688 17.3594 119.109 17.3594C118.531 17.3594 117.953 17.4062 117.453 17.5C116.953 17.5937 116.5 17.75 116.125 17.9531C115.75 18.1562 115.453 18.4062 115.234 18.7187C115.016 19.0312 114.906 19.3906 114.906 19.8125C114.906 20.2344 115.016 20.6094 115.234 20.9062C115.453 21.2187 115.75 21.4687 116.125 21.6719C116.5 21.875 116.938 22.0312 117.453 22.1406C117.953 22.25 118.516 22.2969 119.109 22.2969C119.703 22.2969 120.25 22.25 120.75 22.1406C121.266 22.0312 121.719 21.875 122.094 21.6719C122.484 21.4687 122.781 21.2187 123 20.9062C123.219 20.5937 123.328 20.2344 123.328 19.8125Z" fill="#003B90"/>
<path d="M142.594 33.1562C141.609 33.3281 140.609 33.4687 139.578 33.5469C138.547 33.6406 137.578 33.6719 136.672 33.6719H132.422V16.9844H141.875V19.4687H135.234V31.1719H136.672C137.578 31.1719 138.547 31.125 139.578 31.0469C140.609 30.9687 141.609 30.8437 142.594 30.6875V33.125V33.1562ZM151.625 39.5469H148.875V26.4062H146.375V38.4844H143.625V15.9219H146.375V23.7656H148.875V15.6094H151.625V39.5469Z" fill="#003B90"/>
<path d="M169 20.0469H166.625C167 20.5 167.297 21.0156 167.5 21.5625C167.703 22.1094 167.813 22.7031 167.813 23.3594C167.813 24.1562 167.656 24.8906 167.344 25.5781C167.031 26.2656 166.609 26.8594 166.078 27.3594C165.531 27.8594 164.891 28.25 164.141 28.5312C163.391 28.8125 162.594 28.9531 161.734 28.9531C160.875 28.9531 160.078 28.8125 159.328 28.5312C158.578 28.25 157.938 27.8594 157.391 27.3594C156.844 26.8594 156.422 26.2656 156.109 25.5781C155.797 24.8906 155.641 24.1406 155.641 23.3594C155.641 22.7031 155.75 22.1094 155.953 21.5625C156.156 21.0156 156.453 20.5156 156.828 20.0469H154.359V17.5625H160.25V15.1719H163.188V17.5625H168.984V20.0469H169ZM173.719 39.5469H170.859V33.4531H157.344V30.9062H173.719V39.5469ZM164.969 23.2344C164.969 22.7187 164.891 22.2656 164.719 21.875C164.547 21.4844 164.313 21.1406 164.031 20.875C163.75 20.6094 163.422 20.4062 163.047 20.2656C162.672 20.125 162.281 20.0469 161.875 20.0469H161.75C161.328 20.0469 160.906 20.1094 160.531 20.25C160.141 20.375 159.797 20.5781 159.5 20.8437C159.203 21.1094 158.969 21.4375 158.797 21.8437C158.625 22.2344 158.547 22.7031 158.547 23.2344C158.547 23.7656 158.625 24.2344 158.797 24.6406C158.969 25.0469 159.203 25.3906 159.5 25.6562C159.797 25.9375 160.141 26.1406 160.531 26.2812C160.922 26.4219 161.328 26.5 161.75 26.5C162.172 26.5 162.594 26.4375 162.969 26.2812C163.359 26.1406 163.687 25.9375 163.984 25.6562C164.281 25.3906 164.516 25.0469 164.688 24.6406C164.875 24.2344 164.953 23.7656 164.953 23.2344H164.969ZM177.094 24.2344H173.719V29.9844H170.859V15.6094H173.719V21.7031H177.094V24.25V24.2344Z" fill="#003B90"/>
<path d="M200 36.5H176.953V33.9844H182.25V25.9844H185.141V33.9844H188.391V25.9844H191.266V33.9844H200V36.5ZM197.375 16.875C197.328 18.125 197.25 19.3906 197.172 20.6562C197.094 21.9219 196.984 23.1719 196.875 24.4062C196.766 25.6406 196.641 26.8125 196.484 27.9531C196.344 29.0937 196.187 30.1719 196.016 31.1719H193.266C193.578 29.2031 193.844 27.1719 194.062 25.0937C194.281 23.0156 194.422 21.125 194.469 19.4062H179.766V16.8594H197.375V16.875Z" fill="#003B90"/>
<path d="M64.1719 45.75H65.6875L68.6719 50.9687H68.6875V45.75H70.0156V52.9375H68.5313L65.5156 47.7187H65.5V52.9375H64.1719V45.75Z" fill="#808183"/>
<path d="M75.3281 45.75H76.375L79.3906 52.9375H77.9219L77.1563 51.0781H74.5781L73.8125 52.9375H72.3438L75.3438 45.75H75.3281ZM75.0156 49.8281H76.6719L75.8594 47.625H75.8438L75.0313 49.8281H75.0156Z" fill="#808183"/>
<path d="M81.6563 45.75H83.5156L85.4375 51.1875H85.4531L87.3594 45.75H89.2188V52.9375H87.8906V47.5469H87.8594L86.0156 52.9375H84.8906L83.0313 47.5469H83.0156V52.9375H81.6875V45.75H81.6563Z" fill="#808183"/>
<path d="M93.0938 50.875C93.1094 51.0625 93.1562 51.2031 93.2188 51.3281C93.2812 51.4531 93.3594 51.5469 93.4531 51.625C93.5469 51.7031 93.6406 51.75 93.75 51.7812C93.8594 51.8125 93.9531 51.8281 94.0625 51.8281C94.1875 51.8281 94.3125 51.8125 94.4375 51.7656C94.5625 51.7187 94.6562 51.6562 94.75 51.5781C94.8437 51.5 94.9219 51.4062 94.9687 51.2969C95.0312 51.1875 95.0469 51.0625 95.0469 50.9219C95.0469 50.7344 95.0156 50.5937 94.9531 50.4688C94.8906 50.3438 94.8125 50.25 94.6875 50.1562C94.5781 50.0781 94.4219 50 94.25 49.9219C94.0781 49.8594 93.875 49.7812 93.6562 49.6875C93.5156 49.6406 93.3594 49.5625 93.1562 49.4844C92.9531 49.4062 92.7656 49.2969 92.5937 49.1406C92.4219 48.9844 92.2656 48.7969 92.1406 48.5469C92.0156 48.2969 91.9531 47.9844 91.9531 47.6094C91.9531 47.3281 92 47.0625 92.1094 46.8125C92.2188 46.5625 92.3594 46.3437 92.5469 46.1562C92.7344 45.9687 92.9531 45.8281 93.2188 45.7188C93.4688 45.6094 93.75 45.5625 94.0625 45.5625C94.2656 45.5625 94.5 45.5937 94.7344 45.6719C94.9844 45.75 95.2031 45.8594 95.4063 46.0312C95.6094 46.2031 95.7969 46.4062 95.9375 46.6719C96.0781 46.9375 96.1719 47.25 96.1875 47.6094H94.8281C94.8281 47.4531 94.7813 47.3125 94.7344 47.2187C94.6875 47.1094 94.625 47.0312 94.5469 46.9687C94.4687 46.9062 94.3906 46.8594 94.2969 46.8437C94.2031 46.8281 94.1094 46.8125 94.0156 46.8125C93.8125 46.8125 93.6406 46.875 93.4844 47.0156C93.3438 47.1562 93.2656 47.3281 93.2656 47.5469C93.2656 47.7031 93.2969 47.8281 93.3438 47.9375C93.4063 48.0312 93.4844 48.125 93.5781 48.1875C93.6875 48.2656 93.8125 48.3281 93.9531 48.375C94.1094 48.4375 94.2656 48.4844 94.4531 48.5469C94.6094 48.5937 94.7812 48.6719 95 48.75C95.2187 48.8437 95.4219 48.9687 95.625 49.1406C95.8281 49.3125 96 49.5312 96.1406 49.7812C96.2812 50.0469 96.3438 50.375 96.3438 50.75C96.3438 51.125 96.2812 51.4844 96.1406 51.7656C96 52.0469 95.8281 52.2969 95.5938 52.4844C95.375 52.6719 95.1094 52.8125 94.8438 52.9062C94.5625 53 94.2812 53.0469 94 53.0469C93.7656 53.0469 93.5156 53 93.25 52.9219C92.9844 52.8437 92.7344 52.7187 92.5 52.5312C92.2656 52.3594 92.0781 52.125 91.9219 51.8437C91.7656 51.5625 91.6719 51.2344 91.6562 50.8281H93.0625L93.0938 50.875Z" fill="#808183"/>
<path d="M98.9531 45.75H102.828V47H100.281V48.7656H102.719V50.0156H100.281V51.7187H102.828V52.9687H98.9531V45.7812V45.75Z" fill="#808183"/>
<path d="M105.25 49.3594C105.25 48.8281 105.344 48.3281 105.547 47.875C105.75 47.4219 106.016 47.0156 106.359 46.6719C106.703 46.3281 107.109 46.0781 107.562 45.875C108.016 45.6875 108.5 45.5938 109.016 45.5938C109.531 45.5938 110.016 45.6875 110.469 45.875C110.922 46.0625 111.328 46.3281 111.672 46.6719C112.016 47.0156 112.281 47.4062 112.484 47.875C112.688 48.3281 112.781 48.8281 112.781 49.3594C112.781 49.8906 112.688 50.3594 112.484 50.8125C112.281 51.2656 112.016 51.6562 111.672 52C111.328 52.3437 110.938 52.6094 110.469 52.7969C110.016 52.9844 109.516 53.0937 109 53.0937C108.484 53.0937 107.984 53 107.531 52.7969C107.078 52.6094 106.672 52.3437 106.328 52C105.984 51.6562 105.719 51.2656 105.516 50.8125C105.313 50.3594 105.219 49.875 105.219 49.3594H105.25ZM106.594 49.3594C106.594 49.6875 106.656 50 106.781 50.3125C106.906 50.6094 107.078 50.875 107.297 51.1094C107.516 51.3437 107.781 51.5156 108.078 51.6562C108.375 51.7812 108.688 51.8594 109.031 51.8594C109.375 51.8594 109.703 51.7969 109.984 51.6562C110.281 51.5312 110.531 51.3437 110.766 51.1094C110.984 50.875 111.156 50.6094 111.281 50.3125C111.406 50.0156 111.469 49.7031 111.469 49.3594C111.469 49.0156 111.406 48.6875 111.281 48.3906C111.156 48.0937 110.984 47.8281 110.766 47.5937C110.547 47.3594 110.281 47.1875 109.984 47.0469C109.688 46.9062 109.375 46.8437 109.031 46.8437C108.688 46.8437 108.375 46.9062 108.078 47.0469C107.781 47.1719 107.531 47.3594 107.297 47.5937C107.063 47.8281 106.906 48.0781 106.781 48.3906C106.656 48.6875 106.594 49.0156 106.594 49.3594Z" fill="#808183"/>
<path d="M116.344 45.75V50.3125C116.344 50.4062 116.344 50.5312 116.359 50.7031C116.359 50.875 116.422 51.0469 116.5 51.2031C116.578 51.375 116.703 51.5156 116.875 51.6406C117.047 51.7656 117.281 51.8281 117.594 51.8281C117.906 51.8281 118.141 51.7656 118.313 51.6406C118.484 51.5156 118.609 51.3594 118.688 51.2031C118.766 51.0312 118.813 50.8594 118.828 50.7031C118.828 50.5312 118.844 50.4062 118.844 50.3125V45.75H120.172V50.3125C120.172 50.6094 120.141 50.9062 120.094 51.2031C120.031 51.5 119.922 51.7812 119.75 52.0156C119.547 52.3125 119.25 52.5625 118.891 52.7656C118.531 52.9844 118.094 53.0781 117.594 53.0781C117.328 53.0781 117.063 53.0469 116.844 52.9687C116.609 52.9062 116.406 52.8125 116.234 52.7187C116.047 52.6094 115.906 52.5 115.766 52.3906C115.641 52.2656 115.531 52.1562 115.453 52.0469C115.328 51.8906 115.234 51.6719 115.141 51.3906C115.047 51.1094 115 50.75 115 50.2969V45.7344H116.328L116.344 45.75Z" fill="#808183"/>
<path d="M123 45.75H124.328V51.6875H126.531V52.9375H122.984V45.75H123Z" fill="#808183"/>
<path d="M133.922 45.75V50.3125C133.922 50.4062 133.922 50.5312 133.938 50.7031C133.938 50.875 134 51.0469 134.078 51.2031C134.156 51.375 134.281 51.5156 134.453 51.6406C134.625 51.7656 134.859 51.8281 135.172 51.8281C135.484 51.8281 135.719 51.7656 135.891 51.6406C136.063 51.5156 136.188 51.3594 136.266 51.2031C136.344 51.0312 136.391 50.8594 136.406 50.7031C136.406 50.5312 136.422 50.4062 136.422 50.3125V45.75H137.75V50.3125C137.75 50.6094 137.719 50.9062 137.672 51.2031C137.609 51.5 137.5 51.7812 137.344 52.0156C137.141 52.3125 136.844 52.5625 136.484 52.7656C136.125 52.9844 135.688 53.0781 135.188 53.0781C134.906 53.0781 134.656 53.0469 134.438 52.9687C134.203 52.9062 134 52.8125 133.828 52.7187C133.656 52.6094 133.5 52.5 133.359 52.3906C133.234 52.2656 133.125 52.1562 133.047 52.0469C132.938 51.8906 132.828 51.6719 132.734 51.3906C132.641 51.1094 132.594 50.75 132.594 50.2969V45.7344H133.922V45.75Z" fill="#808183"/>
<path d="M140.656 45.75H142.172L145.156 50.9687H145.172V45.75H146.5V52.9375H145.016L142 47.7187H141.984V52.9375H140.656V45.75Z" fill="#808183"/>
<path d="M149.531 45.75H150.859V52.9375H149.531V45.75Z" fill="#808183"/>
<path d="M153.172 45.75H154.578L156.5 51.2187H156.516L158.453 45.75H159.859L157.062 52.9375H155.969L153.156 45.75H153.172Z" fill="#808183"/>
<path d="M162.109 45.75H165.984V47H163.437V48.7656H165.875V50.0156H163.437V51.7187H165.984V52.9687H162.109V45.7812V45.75Z" fill="#808183"/>
<path d="M168.844 45.75H171.063C171.484 45.75 171.828 45.7812 172.094 45.8594C172.359 45.9375 172.609 46.0625 172.813 46.2344C172.922 46.3125 173.016 46.4219 173.125 46.5312C173.219 46.6406 173.313 46.7812 173.391 46.9219C173.469 47.0625 173.531 47.2344 173.578 47.4062C173.625 47.5781 173.656 47.7656 173.656 47.9844C173.656 48.0937 173.656 48.2344 173.625 48.375C173.609 48.5312 173.563 48.6719 173.5 48.8281C173.438 48.9844 173.375 49.1406 173.281 49.2812C173.188 49.4375 173.078 49.5625 172.953 49.6875C172.734 49.8906 172.531 50.0312 172.328 50.1094C172.125 50.1875 171.938 50.2344 171.75 50.2812L173.703 52.9375H172.078L170.172 50.1875H170.156V52.9375H168.828V45.75H168.844ZM170.172 49.1875H171.031C171.313 49.1875 171.531 49.1406 171.688 49.0625C171.859 48.9844 171.984 48.8906 172.078 48.7656C172.172 48.6562 172.234 48.5312 172.266 48.4062C172.297 48.2812 172.313 48.1719 172.313 48.0781C172.313 47.9844 172.297 47.875 172.266 47.75C172.234 47.625 172.156 47.5 172.063 47.3906C171.969 47.2812 171.828 47.1875 171.672 47.1094C171.5 47.0312 171.297 47 171.031 47H170.172V49.2031V49.1875Z" fill="#808183"/>
<path d="M177.078 50.875C177.094 51.0625 177.141 51.2031 177.203 51.3281C177.266 51.4531 177.344 51.5469 177.437 51.625C177.531 51.7031 177.625 51.75 177.734 51.7812C177.844 51.8125 177.937 51.8281 178.047 51.8281C178.172 51.8281 178.297 51.8125 178.422 51.7656C178.547 51.7187 178.641 51.6562 178.734 51.5781C178.828 51.5 178.906 51.4062 178.953 51.2969C179.016 51.1875 179.031 51.0625 179.031 50.9219C179.031 50.7344 179 50.5937 178.937 50.4688C178.875 50.3438 178.797 50.25 178.672 50.1562C178.547 50.0781 178.406 50 178.234 49.9219C178.062 49.8594 177.859 49.7812 177.641 49.6875C177.5 49.6406 177.344 49.5625 177.141 49.4844C176.937 49.4062 176.75 49.2969 176.578 49.1406C176.406 48.9844 176.25 48.7969 176.125 48.5469C176 48.2969 175.937 47.9844 175.937 47.6094C175.937 47.3281 175.984 47.0625 176.094 46.8125C176.203 46.5625 176.344 46.3437 176.531 46.1562C176.719 45.9687 176.938 45.8281 177.203 45.7188C177.453 45.6094 177.734 45.5625 178.047 45.5625C178.25 45.5625 178.484 45.5937 178.719 45.6719C178.969 45.75 179.187 45.8594 179.391 46.0312C179.594 46.2031 179.781 46.4062 179.922 46.6719C180.062 46.9375 180.156 47.25 180.172 47.6094H178.812C178.812 47.4531 178.766 47.3125 178.719 47.2187C178.672 47.1094 178.609 47.0312 178.531 46.9687C178.453 46.9062 178.375 46.8594 178.281 46.8437C178.187 46.8281 178.094 46.8125 178 46.8125C177.797 46.8125 177.625 46.875 177.469 47.0156C177.328 47.1562 177.25 47.3281 177.25 47.5469C177.25 47.7031 177.281 47.8281 177.328 47.9375C177.391 48.0312 177.469 48.125 177.562 48.1875C177.672 48.2656 177.797 48.3281 177.937 48.375C178.094 48.4375 178.25 48.4844 178.437 48.5469C178.594 48.5937 178.766 48.6719 178.984 48.75C179.203 48.8437 179.406 48.9687 179.609 49.1406C179.812 49.3125 179.984 49.5312 180.125 49.7812C180.266 50.0469 180.328 50.375 180.328 50.75C180.328 51.125 180.266 51.4844 180.125 51.7656C179.984 52.0469 179.812 52.2969 179.578 52.4844C179.359 52.6719 179.094 52.8125 178.828 52.9062C178.547 53 178.266 53.0469 177.984 53.0469C177.75 53.0469 177.5 53 177.234 52.9219C176.969 52.8437 176.719 52.7187 176.484 52.5312C176.25 52.3594 176.062 52.125 175.906 51.8437C175.75 51.5625 175.656 51.2344 175.641 50.8281H177.047L177.078 50.875Z" fill="#808183"/>
<path d="M183.016 45.75H184.344V52.9375H183.016V45.75Z" fill="#808183"/>
<path d="M187.984 47H186.656V45.75H190.672V47H189.328V52.9531H188V47H187.984Z" fill="#808183"/>
<path d="M194.906 50.2969L192.531 45.7656H194L195.563 49.0625L197.141 45.7656H198.609L196.234 50.2969V52.9531H194.906V50.2969Z" fill="#808183"/>
<path d="M52.9688 52.9844H30.0781V30.0938H37.9063V45.1719H45.125V30.0938H52.9688V52.9844Z" fill="#62C0B4"/>
<path d="M22.8906 22.875V15.0469H0V30.0937V37.9219H15.0781V45.1406H0V52.9844H22.875V37.9219H22.8906V30.0937H7.8125V22.875H22.8906Z" fill="#009BB4"/>
<path d="M37.9375 0H15.0625V22.8906H22.8906V7.8125H30.1094V22.8906H37.9375V0Z" fill="#003B90"/>
</svg>
