<svg width="20" height="20" viewBox="0 0 20 20" fill="none" xmlns="http://www.w3.org/2000/svg">
<path d="M14.7252 12.7999C14.4502 13.0749 14.4502 13.5166 14.7252 13.7916C14.8585 13.9249 15.0419 13.9999 15.2252 13.9999C15.4085 13.9999 15.5835 13.9333 15.7252 13.7916L19.0252 10.4916C19.1585 10.3583 19.2335 10.1833 19.2335 9.9916C19.2335 9.79993 19.1585 9.62494 19.0252 9.4916L15.7252 6.1916C15.4502 5.9166 15.0085 5.9166 14.7335 6.1916C14.4585 6.4666 14.4585 6.90827 14.7335 7.18327L16.8335 9.28327H8.93352C8.54185 9.28327 8.23352 9.59993 8.23352 9.98327C8.23352 10.3666 8.55019 10.6833 8.93352 10.6833H16.8252L14.7252 12.7833V12.7999Z" fill="#6C6C6C"/>
<path d="M2.70837 17.3918L12.2584 17.3918C12.65 17.3918 12.9584 17.0752 12.9584 16.6918L12.9584 13.0168C12.9584 12.6252 12.6417 12.3168 12.2584 12.3168C11.875 12.3168 11.5584 12.6335 11.5584 13.0168L11.5584 15.9918L3.40837 15.9918L3.40837 4.00851L11.5584 4.00851L11.5584 6.98351C11.5584 7.37518 11.875 7.68351 12.2584 7.68351C12.6417 7.68351 12.9584 7.36685 12.9584 6.98351L12.9584 3.30851C12.9584 2.91685 12.6417 2.60851 12.2584 2.60851L2.70004 2.60851C2.30837 2.60851 2.00004 2.92518 2.00004 3.30851L2.00004 16.6918C2.00004 17.0835 2.31671 17.3918 2.70004 17.3918L2.70837 17.3918Z" fill="#6C6C6C"/>
</svg>
