<svg width="14" height="17" viewBox="0 0 14 17" fill="none" xmlns="http://www.w3.org/2000/svg">
<path d="M10.2326 7.17207C11.5662 7.17207 12.6573 8.22146 12.6573 9.50405V13.3907C12.6573 14.6733 11.5662 15.7227 10.2326 15.7227H3.23304C1.89941 15.7227 0.80826 14.6733 0.80826 13.3907V9.50405C0.80826 8.22146 1.89941 7.17207 3.23304 7.17207H10.2406M10.2326 6.39474H3.23304C1.44678 6.39474 0 7.78615 0 9.50405V13.3907C0 15.1086 1.44678 16.5 3.23304 16.5H10.2406C12.0269 16.5 13.4737 15.1086 13.4737 13.3907V9.50405C13.4737 7.78615 12.0269 6.39474 10.2406 6.39474H10.2326Z" fill="#6C6C6C"/>
<path d="M2.52637 6.39474V4.33666C2.52637 2.22777 4.42332 0.5 6.73689 0.5C9.05047 0.5 10.9474 2.2193 10.9474 4.32819V6.38627" stroke="#6C6C6C" stroke-linecap="round" stroke-linejoin="round"/>
<path d="M6.73682 11.9863V13.3842" stroke="#6C6C6C" stroke-linecap="round" stroke-linejoin="round"/>
<path d="M6.73688 9.96526C7.0653 9.96526 7.32635 10.2263 7.32635 10.5547C7.32635 10.8832 7.0653 11.1442 6.73688 11.1442C6.40846 11.1442 6.1474 10.8832 6.1474 10.5547C6.1474 10.2263 6.40846 9.96526 6.73688 9.96526ZM6.73688 9.12316C5.9453 9.12316 5.3053 9.76316 5.3053 10.5547C5.3053 11.3463 5.9453 11.9863 6.73688 11.9863C7.52846 11.9863 8.16846 11.3463 8.16846 10.5547C8.16846 9.76316 7.52846 9.12316 6.73688 9.12316Z" fill="#6C6C6C"/>
</svg>
