<svg width="16" height="16" viewBox="0 0 16 16" fill="none" xmlns="http://www.w3.org/2000/svg">
<path d="M4.24219 5.49875V5.97099" stroke="#6C6C6C" stroke-linecap="round" stroke-linejoin="round"/>
<path d="M11.766 5.49875V5.97099" stroke="#6C6C6C" stroke-linecap="round" stroke-linejoin="round"/>
<path d="M7.88407 6.57129C7.88407 6.57129 7.82804 7.31566 7.09167 8.05203L7.92409 8.77239" stroke="#6C6C6C" stroke-linecap="round" stroke-linejoin="round"/>
<path d="M6.19507 11.0135C6.60327 11.3257 7.32363 11.5338 8.14004 11.5338C8.95645 11.5338 9.70883 11.3177 10.109 10.9975" stroke="#6C6C6C" stroke-linecap="round" stroke-linejoin="round"/>
<path d="M12.006 0.8004C13.7749 0.8004 15.2076 2.24112 15.2076 4.002V11.998C15.2076 13.7669 13.7669 15.1996 12.006 15.1996H4.002C2.23312 15.1996 0.8004 13.7589 0.8004 11.998V4.002C0.8004 2.24112 2.24112 0.8004 4.002 0.8004H11.998M12.006 0H4.002C1.7929 0 0 1.7929 0 4.002V11.998C0 14.2071 1.7929 16 4.002 16H11.998C14.2071 16 16 14.2071 16 11.998V4.002C16 1.7929 14.2071 0 11.998 0H12.006Z" fill="#6C6C6C"/>
</svg>
