<svg width="15" height="18" viewBox="0 0 15 18" fill="none" xmlns="http://www.w3.org/2000/svg">
<path d="M7.76096 1C5.55766 1 3.76514 2.79252 3.76514 4.99583V7.72085C3.76514 8.01266 4.00159 8.24912 4.29341 8.24912C4.58522 8.24912 4.82167 8.01266 4.82167 7.72085V4.99583C4.82167 3.3751 6.14023 2.05654 7.76096 2.05654C9.38169 2.05654 10.7003 3.3751 10.7003 4.99583V7.72085C10.7003 8.01266 10.9367 8.24912 11.2285 8.24912C11.5203 8.24912 11.7568 8.01266 11.7568 7.72085V4.99583C11.7568 2.79273 9.96405 1 7.76096 1Z" fill="#A6A8AB" stroke="#A6A8AB"/>
<path d="M11.9044 17.0013H3.56871C2.41328 17.0013 1.47339 16.0614 1.47339 14.906V9.74376C1.47339 8.58833 2.41328 7.64844 3.56871 7.64844H11.9044C13.0598 7.64844 13.9999 8.58833 13.9999 9.74376V14.906C13.9999 16.0614 13.0598 17.0013 11.9044 17.0013ZM3.56871 8.70498C2.99586 8.70498 2.52993 9.17091 2.52993 9.74376V14.906C2.52993 15.4789 2.99586 15.9448 3.56871 15.9448H11.9044C12.4772 15.9448 12.9434 15.4789 12.9434 14.906V9.74376C12.9434 9.17091 12.4772 8.70498 11.9044 8.70498H3.56871Z" fill="#A6A8AB" stroke="#A6A8AB"/>
</svg>
