<svg width="200" height="83" viewBox="0 0 200 83" fill="none" xmlns="http://www.w3.org/2000/svg">
<path d="M25.9551 26.9984H14.7415V15.7668H18.5763V23.1656H22.1123V15.7668H25.9551V26.9984Z" fill="#62C0B4"/>
<path d="M11.2217 12.2251V8.37613H0V15.7668V19.6158H7.38692V23.1494H0V26.9984H11.2136V19.6158V15.7668H3.82667V12.2251H11.2217Z" fill="#009BB4"/>
<path d="M18.5924 1.00161H7.37885V12.2332H11.2217V4.83441H14.7577V12.2332H18.5924V1.00161Z" fill="#003B90"/>
<path d="M39.8151 2.028H41.0631V8.208H39.8151V2.028ZM40.7271 4.44H42.6231V5.484H40.7271V4.44ZM34.0551 8.76H41.0631V12.852H34.0551V8.76ZM39.8391 9.768H35.2911V11.844H39.8391V9.768ZM32.9991 2.556H34.2471V6.996H32.9991V2.556ZM32.9991 6.468H33.8871C34.6551 6.468 35.4471 6.436 36.2631 6.372C37.0871 6.3 37.9391 6.18 38.8191 6.012L38.9631 7.02C38.0511 7.212 37.1751 7.344 36.3351 7.416C35.5031 7.48 34.6871 7.512 33.8871 7.512H32.9991V6.468ZM48.8022 5.616H51.7902V6.636H48.8022V5.616ZM46.0062 2.916H47.0262V4.716C47.0262 5.364 46.9582 5.996 46.8222 6.612C46.6862 7.22 46.4862 7.792 46.2222 8.328C45.9662 8.856 45.6502 9.328 45.2742 9.744C44.9062 10.152 44.4862 10.476 44.0142 10.716L43.2342 9.72C43.6662 9.512 44.0502 9.232 44.3862 8.88C44.7302 8.528 45.0222 8.128 45.2622 7.68C45.5102 7.224 45.6942 6.748 45.8142 6.252C45.9422 5.748 46.0062 5.236 46.0062 4.716V2.916ZM46.2582 2.916H47.2662V4.716C47.2662 5.22 47.3262 5.72 47.4462 6.216C47.5742 6.704 47.7582 7.164 47.9982 7.596C48.2382 8.02 48.5262 8.4 48.8622 8.736C49.1982 9.072 49.5782 9.336 50.0022 9.528L49.2462 10.536C48.7742 10.296 48.3542 9.98 47.9862 9.588C47.6182 9.188 47.3062 8.732 47.0502 8.22C46.7942 7.708 46.5982 7.156 46.4622 6.564C46.3262 5.964 46.2582 5.348 46.2582 4.716V2.916ZM51.1542 2.016H52.4142V13.008H51.1542V2.016ZM58.4253 7.212H59.6733V8.82H58.4253V7.212ZM59.0613 2.148C60.2933 2.148 61.2493 2.312 61.9293 2.64C62.6173 2.96 62.9613 3.42 62.9613 4.02C62.9613 4.628 62.6173 5.096 61.9293 5.424C61.2493 5.752 60.2933 5.916 59.0613 5.916C57.8293 5.916 56.8693 5.752 56.1813 5.424C55.4933 5.096 55.1493 4.628 55.1493 4.02C55.1493 3.42 55.4933 2.96 56.1813 2.64C56.8693 2.312 57.8293 2.148 59.0613 2.148ZM59.0493 3.072C58.4893 3.072 58.0133 3.108 57.6213 3.18C57.2373 3.252 56.9453 3.36 56.7453 3.504C56.5533 3.64 56.4573 3.812 56.4573 4.02C56.4573 4.228 56.5533 4.404 56.7453 4.548C56.9453 4.692 57.2373 4.8 57.6213 4.872C58.0133 4.944 58.4893 4.98 59.0493 4.98C59.6253 4.98 60.1053 4.944 60.4893 4.872C60.8733 4.8 61.1653 4.692 61.3653 4.548C61.5653 4.404 61.6653 4.228 61.6653 4.02C61.6653 3.812 61.5653 3.64 61.3653 3.504C61.1653 3.36 60.8733 3.252 60.4893 3.18C60.1053 3.108 59.6253 3.072 59.0493 3.072ZM54.1053 6.516H64.0173V7.524H54.1053V6.516ZM55.2693 8.4H62.7693V11.028H56.5293V12.192H55.2933V10.14H61.5333V9.348H55.2693V8.4ZM55.2933 11.928H63.0813V12.888H55.2933V11.928ZM73.0523 2.016H74.2523V12.984H73.0523V2.016ZM71.3723 6.336H73.3643V7.368H71.3723V6.336ZM70.5803 2.244H71.7563V12.444H70.5803V2.244ZM65.2643 9.348H65.9963C66.5003 9.348 66.9643 9.34 67.3883 9.324C67.8123 9.308 68.2243 9.28 68.6243 9.24C69.0323 9.192 69.4483 9.128 69.8723 9.048L69.9923 10.08C69.5523 10.168 69.1243 10.236 68.7083 10.284C68.2923 10.324 67.8643 10.352 67.4243 10.368C66.9923 10.384 66.5163 10.392 65.9963 10.392H65.2643V9.348ZM65.2643 3.324H69.3203V4.344H66.5003V9.828H65.2643V3.324ZM81.5686 3.432C82.3046 3.432 82.9086 3.524 83.3806 3.708C83.8526 3.892 84.2046 4.168 84.4366 4.536C84.6686 4.896 84.7846 5.352 84.7846 5.904C84.7846 6.344 84.7006 6.716 84.5326 7.02C84.3726 7.316 84.1646 7.56 83.9086 7.752C83.6526 7.936 83.3846 8.084 83.1046 8.196L85.5046 12H84.0166L81.9526 8.532H80.4646V12H79.1686V3.432H81.5686ZM81.4846 4.536H80.4646V7.452H81.5446C81.9846 7.452 82.3446 7.396 82.6246 7.284C82.9126 7.172 83.1206 7.004 83.2486 6.78C83.3846 6.556 83.4526 6.28 83.4526 5.952C83.4526 5.608 83.3806 5.336 83.2366 5.136C83.1006 4.928 82.8846 4.776 82.5886 4.68C82.3006 4.584 81.9326 4.536 81.4846 4.536ZM89.1623 12H85.8383V11.256L86.8583 10.956V4.488L85.8383 4.176V3.432H89.1623V4.176L88.1543 4.488V10.956L89.1623 11.256V12ZM95.4445 9.684C95.4445 10.196 95.3205 10.632 95.0725 10.992C94.8245 11.352 94.4685 11.632 94.0045 11.832C93.5405 12.024 92.9885 12.12 92.3485 12.12C92.0365 12.12 91.7365 12.1 91.4485 12.06C91.1605 12.028 90.8925 11.98 90.6445 11.916C90.3965 11.852 90.1765 11.772 89.9845 11.676V10.452C90.3045 10.596 90.6805 10.728 91.1125 10.848C91.5445 10.96 91.9845 11.016 92.4325 11.016C92.8165 11.016 93.1365 10.964 93.3925 10.86C93.6485 10.756 93.8405 10.612 93.9685 10.428C94.0965 10.244 94.1605 10.028 94.1605 9.78C94.1605 9.516 94.0925 9.296 93.9565 9.12C93.8285 8.936 93.6245 8.768 93.3445 8.616C93.0725 8.456 92.7045 8.288 92.2405 8.112C91.9205 7.992 91.6285 7.86 91.3645 7.716C91.1085 7.564 90.8805 7.388 90.6805 7.188C90.4885 6.988 90.3405 6.756 90.2365 6.492C90.1325 6.228 90.0805 5.92 90.0805 5.568C90.0805 5.096 90.1965 4.692 90.4285 4.356C90.6685 4.02 90.9965 3.764 91.4125 3.588C91.8285 3.404 92.3125 3.312 92.8645 3.312C93.3285 3.312 93.7565 3.36 94.1485 3.456C94.5485 3.544 94.9285 3.668 95.2885 3.828L94.8805 4.896C94.5525 4.76 94.2205 4.648 93.8845 4.56C93.5485 4.472 93.1965 4.428 92.8285 4.428C92.5085 4.428 92.2405 4.476 92.0245 4.572C91.8085 4.668 91.6445 4.8 91.5325 4.968C91.4285 5.136 91.3765 5.332 91.3765 5.556C91.3765 5.82 91.4365 6.04 91.5565 6.216C91.6765 6.392 91.8685 6.556 92.1325 6.708C92.3965 6.852 92.7445 7.012 93.1765 7.188C93.6565 7.372 94.0645 7.572 94.4005 7.788C94.7445 8.004 95.0045 8.264 95.1805 8.568C95.3565 8.864 95.4445 9.236 95.4445 9.684ZM101.706 12H96.8822V3.432H101.706V4.536H98.1782V6.984H101.49V8.076H98.1782V10.884H101.706V12ZM105.326 2.928H106.346V4.728C106.346 5.36 106.274 5.984 106.13 6.6C105.994 7.208 105.794 7.776 105.53 8.304C105.274 8.832 104.958 9.304 104.582 9.72C104.206 10.128 103.782 10.452 103.31 10.692L102.554 9.672C102.978 9.464 103.362 9.188 103.706 8.844C104.05 8.492 104.342 8.096 104.582 7.656C104.822 7.208 105.006 6.736 105.134 6.24C105.262 5.736 105.326 5.232 105.326 4.728V2.928ZM105.554 2.928H106.574V4.728C106.574 5.216 106.634 5.7 106.754 6.18C106.874 6.652 107.05 7.104 107.282 7.536C107.522 7.96 107.806 8.34 108.134 8.676C108.462 9.012 108.83 9.28 109.238 9.48L108.47 10.488C108.014 10.248 107.606 9.932 107.246 9.54C106.894 9.14 106.59 8.684 106.334 8.172C106.086 7.66 105.894 7.112 105.758 6.528C105.622 5.944 105.554 5.344 105.554 4.728V2.928ZM109.97 2.028H111.23V12.996H109.97V2.028ZM110.954 6.36H112.934V7.416H110.954V6.36ZM119.053 4.548H121.909V5.58H119.053V4.548ZM116.533 2.508C117.085 2.508 117.577 2.616 118.009 2.832C118.441 3.048 118.777 3.352 119.017 3.744C119.265 4.128 119.389 4.572 119.389 5.076C119.389 5.58 119.265 6.028 119.017 6.42C118.777 6.804 118.441 7.108 118.009 7.332C117.577 7.548 117.085 7.656 116.533 7.656C115.989 7.656 115.501 7.548 115.069 7.332C114.637 7.108 114.297 6.804 114.049 6.42C113.809 6.028 113.689 5.58 113.689 5.076C113.689 4.572 113.809 4.128 114.049 3.744C114.297 3.352 114.637 3.048 115.069 2.832C115.501 2.616 115.989 2.508 116.533 2.508ZM116.545 3.552C116.225 3.552 115.937 3.616 115.681 3.744C115.433 3.864 115.237 4.04 115.093 4.272C114.957 4.504 114.889 4.772 114.889 5.076C114.889 5.38 114.957 5.648 115.093 5.88C115.237 6.112 115.433 6.292 115.681 6.42C115.929 6.54 116.213 6.6 116.533 6.6C116.853 6.6 117.137 6.54 117.385 6.42C117.633 6.292 117.829 6.112 117.973 5.88C118.117 5.648 118.189 5.38 118.189 5.076C118.189 4.772 118.117 4.504 117.973 4.272C117.829 4.04 117.633 3.864 117.385 3.744C117.145 3.616 116.865 3.552 116.545 3.552ZM121.357 2.028H122.617V7.908H121.357V2.028ZM115.489 8.436H116.737V9.66H121.369V8.436H122.617V12.852H115.489V8.436ZM116.737 10.632V11.844H121.369V10.632H116.737ZM34.6551 16.7H35.6511V18.08C35.6511 18.656 35.5551 19.224 35.3631 19.784C35.1711 20.336 34.8871 20.836 34.5111 21.284C34.1431 21.732 33.6751 22.08 33.1071 22.328L32.4351 21.356C32.9311 21.132 33.3431 20.844 33.6711 20.492C33.9991 20.132 34.2431 19.744 34.4031 19.328C34.5711 18.904 34.6551 18.488 34.6551 18.08V16.7ZM34.8831 16.7H35.8671V18.08C35.8671 18.472 35.9471 18.86 36.1071 19.244C36.2671 19.628 36.5071 19.976 36.8271 20.288C37.1471 20.6 37.5391 20.852 38.0031 21.044L37.3431 21.992C36.7991 21.776 36.3431 21.468 35.9751 21.068C35.6071 20.668 35.3311 20.212 35.1471 19.7C34.9711 19.18 34.8831 18.64 34.8831 18.08V16.7ZM40.5951 16.028H41.7951V22.772H40.5951V16.028ZM39.0351 18.848H40.9551V19.868H39.0351V18.848ZM38.2551 16.232H39.4431V22.424H38.2551V16.232ZM38.1351 22.964C38.8951 22.964 39.5511 23.044 40.1031 23.204C40.6631 23.364 41.0911 23.596 41.3871 23.9C41.6911 24.196 41.8431 24.556 41.8431 24.98C41.8431 25.396 41.6911 25.752 41.3871 26.048C41.0911 26.352 40.6631 26.58 40.1031 26.732C39.5511 26.892 38.8951 26.972 38.1351 26.972C37.3831 26.972 36.7271 26.892 36.1671 26.732C35.6071 26.58 35.1751 26.352 34.8711 26.048C34.5751 25.752 34.4271 25.396 34.4271 24.98C34.4271 24.556 34.5751 24.196 34.8711 23.9C35.1751 23.596 35.6071 23.364 36.1671 23.204C36.7271 23.044 37.3831 22.964 38.1351 22.964ZM38.1351 23.924C37.3671 23.924 36.7631 24.016 36.3231 24.2C35.8911 24.376 35.6751 24.636 35.6751 24.98C35.6751 25.308 35.8911 25.564 36.3231 25.748C36.7631 25.932 37.3671 26.024 38.1351 26.024C38.6471 26.024 39.0871 25.984 39.4551 25.904C39.8231 25.816 40.1031 25.696 40.2951 25.544C40.4871 25.392 40.5831 25.204 40.5831 24.98C40.5831 24.636 40.3671 24.376 39.9351 24.2C39.5111 24.016 38.9111 23.924 38.1351 23.924ZM45.7662 16.868C46.2462 16.868 46.6622 17.028 47.0142 17.348C47.3742 17.66 47.6502 18.108 47.8422 18.692C48.0342 19.268 48.1302 19.96 48.1302 20.768C48.1302 21.568 48.0342 22.26 47.8422 22.844C47.6502 23.428 47.3742 23.876 47.0142 24.188C46.6622 24.5 46.2462 24.656 45.7662 24.656C45.2942 24.656 44.8822 24.5 44.5302 24.188C44.1782 23.876 43.9062 23.428 43.7142 22.844C43.5222 22.26 43.4262 21.568 43.4262 20.768C43.4262 19.96 43.5222 19.268 43.7142 18.692C43.9062 18.108 44.1782 17.66 44.5302 17.348C44.8902 17.028 45.3022 16.868 45.7662 16.868ZM45.7662 18.056C45.5262 18.056 45.3142 18.16 45.1302 18.368C44.9542 18.576 44.8182 18.884 44.7222 19.292C44.6262 19.692 44.5782 20.184 44.5782 20.768C44.5782 21.336 44.6262 21.824 44.7222 22.232C44.8182 22.64 44.9542 22.952 45.1302 23.168C45.3142 23.376 45.5262 23.48 45.7662 23.48C46.0222 23.48 46.2382 23.376 46.4142 23.168C46.5982 22.952 46.7382 22.64 46.8342 22.232C46.9302 21.824 46.9782 21.336 46.9782 20.768C46.9782 20.184 46.9302 19.692 46.8342 19.292C46.7382 18.884 46.5982 18.576 46.4142 18.368C46.2382 18.16 46.0222 18.056 45.7662 18.056ZM51.4662 16.016H52.6662V26.984H51.4662V16.016ZM49.9062 20.3H51.8862V21.308H49.9062V20.3ZM49.0542 16.232H50.2302V26.468H49.0542V16.232ZM58.3533 17.168H59.4453V17.564C59.4453 17.956 59.3733 18.328 59.2293 18.68C59.0933 19.024 58.8933 19.348 58.6293 19.652C58.3653 19.948 58.0533 20.212 57.6933 20.444C57.3413 20.676 56.9453 20.872 56.5053 21.032C56.0733 21.192 55.6093 21.312 55.1133 21.392L54.6453 20.396C55.0773 20.34 55.4773 20.248 55.8453 20.12C56.2213 19.992 56.5613 19.836 56.8653 19.652C57.1773 19.468 57.4413 19.264 57.6573 19.04C57.8813 18.816 58.0533 18.58 58.1733 18.332C58.2933 18.084 58.3533 17.828 58.3533 17.564V17.168ZM58.6893 17.168H59.7813V17.564C59.7813 17.828 59.8373 18.084 59.9493 18.332C60.0693 18.58 60.2413 18.816 60.4653 19.04C60.6893 19.264 60.9533 19.468 61.2573 19.652C61.5613 19.836 61.9013 19.992 62.2773 20.12C62.6533 20.248 63.0573 20.34 63.4893 20.396L63.0213 21.392C62.5253 21.312 62.0573 21.192 61.6173 21.032C61.1853 20.872 60.7893 20.676 60.4293 20.444C60.0693 20.212 59.7573 19.948 59.4933 19.652C59.2373 19.348 59.0373 19.024 58.8933 18.68C58.7573 18.328 58.6893 17.956 58.6893 17.564V17.168ZM58.4133 22.88H59.6613V26.984H58.4133V22.88ZM54.1053 22.184H64.0173V23.204H54.1053V22.184ZM55.0173 16.652H63.0933V17.648H55.0173V16.652ZM72.7043 16.016H73.9643V26.984H72.7043V16.016ZM69.4763 17.18H70.7243C70.7243 17.996 70.6363 18.776 70.4603 19.52C70.2843 20.264 69.9963 20.972 69.5963 21.644C69.2043 22.308 68.6843 22.924 68.0363 23.492C67.3963 24.06 66.6043 24.572 65.6603 25.028L64.9883 24.032C66.0523 23.52 66.9123 22.936 67.5683 22.28C68.2243 21.624 68.7043 20.892 69.0083 20.084C69.3203 19.268 69.4763 18.372 69.4763 17.396V17.18ZM65.5283 17.18H70.0403V18.188H65.5283V17.18ZM80.9234 17.492H83.8274V18.464H80.9234V17.492ZM80.9234 19.496H83.8274V20.468H80.9234V19.496ZM83.5274 16.028H84.7874V21.704H83.5274V16.028ZM77.6474 22.184H84.7874V24.932H78.9074V26.492H77.6714V24.008H83.5394V23.168H77.6474V22.184ZM77.6714 25.868H85.1474V26.852H77.6714V25.868ZM76.2074 16.508H77.4554V17.936H80.0234V16.508H81.2594V21.32H76.2074V16.508ZM77.4554 18.908V20.336H80.0234V18.908H77.4554ZM95.6316 17.888H97.9116V18.908H95.6316V17.888ZM95.6316 19.904H97.9116V20.912H95.6316V19.904ZM89.6796 16.796H95.4516V17.816H89.6796V16.796ZM89.5236 22.22L89.3916 21.188C89.9916 21.188 90.6516 21.184 91.3716 21.176C92.0996 21.16 92.8356 21.132 93.5796 21.092C94.3316 21.052 95.0396 20.992 95.7036 20.912L95.7756 21.848C95.0876 21.96 94.3716 22.044 93.6276 22.1C92.8916 22.156 92.1716 22.192 91.4676 22.208C90.7636 22.216 90.1156 22.22 89.5236 22.22ZM90.6636 17.636H91.8876V21.536H90.6636V17.636ZM93.2556 17.636H94.4676V21.536H93.2556V17.636ZM97.2036 16.028H98.4636V22.76H97.2036V16.028ZM94.8156 22.964C95.9676 22.964 96.8716 23.14 97.5276 23.492C98.1836 23.836 98.5116 24.328 98.5116 24.968C98.5116 25.608 98.1836 26.1 97.5276 26.444C96.8716 26.796 95.9676 26.972 94.8156 26.972C93.6636 26.972 92.7556 26.796 92.0916 26.444C91.4356 26.1 91.1076 25.608 91.1076 24.968C91.1076 24.328 91.4356 23.836 92.0916 23.492C92.7556 23.14 93.6636 22.964 94.8156 22.964ZM94.8156 23.924C94.2956 23.924 93.8516 23.964 93.4836 24.044C93.1156 24.124 92.8356 24.244 92.6436 24.404C92.4596 24.556 92.3676 24.744 92.3676 24.968C92.3676 25.304 92.5796 25.564 93.0036 25.748C93.4276 25.932 94.0316 26.024 94.8156 26.024C95.3356 26.024 95.7756 25.984 96.1356 25.904C96.5036 25.816 96.7836 25.696 96.9756 25.544C97.1676 25.392 97.2636 25.2 97.2636 24.968C97.2636 24.744 97.1676 24.556 96.9756 24.404C96.7836 24.244 96.5036 24.124 96.1356 24.044C95.7756 23.964 95.3356 23.924 94.8156 23.924ZM102.327 16.7H103.323V18.08C103.323 18.656 103.227 19.224 103.035 19.784C102.843 20.336 102.559 20.836 102.183 21.284C101.815 21.732 101.347 22.08 100.779 22.328L100.107 21.356C100.603 21.132 101.015 20.844 101.343 20.492C101.671 20.132 101.915 19.744 102.075 19.328C102.243 18.904 102.327 18.488 102.327 18.08V16.7ZM102.555 16.7H103.539V18.08C103.539 18.472 103.619 18.86 103.779 19.244C103.939 19.628 104.179 19.976 104.499 20.288C104.819 20.6 105.211 20.852 105.675 21.044L105.015 21.992C104.471 21.776 104.015 21.468 103.647 21.068C103.279 20.668 103.003 20.212 102.819 19.7C102.643 19.18 102.555 18.64 102.555 18.08V16.7ZM108.267 16.028H109.467V22.772H108.267V16.028ZM106.707 18.848H108.627V19.868H106.707V18.848ZM105.927 16.232H107.115V22.424H105.927V16.232ZM105.807 22.964C106.567 22.964 107.223 23.044 107.775 23.204C108.335 23.364 108.763 23.596 109.059 23.9C109.363 24.196 109.515 24.556 109.515 24.98C109.515 25.396 109.363 25.752 109.059 26.048C108.763 26.352 108.335 26.58 107.775 26.732C107.223 26.892 106.567 26.972 105.807 26.972C105.055 26.972 104.399 26.892 103.839 26.732C103.279 26.58 102.847 26.352 102.543 26.048C102.247 25.752 102.099 25.396 102.099 24.98C102.099 24.556 102.247 24.196 102.543 23.9C102.847 23.596 103.279 23.364 103.839 23.204C104.399 23.044 105.055 22.964 105.807 22.964ZM105.807 23.924C105.039 23.924 104.435 24.016 103.995 24.2C103.563 24.376 103.347 24.636 103.347 24.98C103.347 25.308 103.563 25.564 103.995 25.748C104.435 25.932 105.039 26.024 105.807 26.024C106.319 26.024 106.759 25.984 107.127 25.904C107.495 25.816 107.775 25.696 107.967 25.544C108.159 25.392 108.255 25.204 108.255 24.98C108.255 24.636 108.039 24.376 107.607 24.2C107.183 24.016 106.583 23.924 105.807 23.924ZM113.786 17.156H114.818V17.948C114.818 18.628 114.694 19.264 114.446 19.856C114.206 20.448 113.854 20.968 113.39 21.416C112.934 21.856 112.378 22.188 111.722 22.412L111.074 21.428C111.658 21.236 112.15 20.96 112.55 20.6C112.95 20.24 113.254 19.832 113.462 19.376C113.678 18.912 113.786 18.436 113.786 17.948V17.156ZM114.038 17.156H115.07V17.948C115.07 18.3 115.126 18.644 115.238 18.98C115.358 19.308 115.534 19.616 115.766 19.904C115.998 20.192 116.278 20.452 116.606 20.684C116.942 20.908 117.322 21.092 117.746 21.236L117.098 22.208C116.458 22 115.91 21.684 115.454 21.26C114.998 20.836 114.646 20.34 114.398 19.772C114.158 19.204 114.038 18.596 114.038 17.948V17.156ZM118.754 16.016H120.014V22.652H118.754V16.016ZM112.634 23.18H120.014V26.996H118.754V24.2H112.634V23.18ZM111.41 16.736H117.398V17.744H111.41V16.736ZM127.297 18.548H130.153V19.58H127.297V18.548ZM124.777 16.508C125.329 16.508 125.821 16.616 126.253 16.832C126.685 17.048 127.021 17.352 127.261 17.744C127.509 18.128 127.633 18.572 127.633 19.076C127.633 19.58 127.509 20.028 127.261 20.42C127.021 20.804 126.685 21.108 126.253 21.332C125.821 21.548 125.329 21.656 124.777 21.656C124.233 21.656 123.745 21.548 123.313 21.332C122.881 21.108 122.541 20.804 122.293 20.42C122.053 20.028 121.933 19.58 121.933 19.076C121.933 18.572 122.053 18.128 122.293 17.744C122.541 17.352 122.881 17.048 123.313 16.832C123.745 16.616 124.233 16.508 124.777 16.508ZM124.789 17.552C124.469 17.552 124.181 17.616 123.925 17.744C123.677 17.864 123.481 18.04 123.337 18.272C123.201 18.504 123.133 18.772 123.133 19.076C123.133 19.38 123.201 19.648 123.337 19.88C123.481 20.112 123.677 20.292 123.925 20.42C124.173 20.54 124.457 20.6 124.777 20.6C125.097 20.6 125.381 20.54 125.629 20.42C125.877 20.292 126.073 20.112 126.217 19.88C126.361 19.648 126.433 19.38 126.433 19.076C126.433 18.772 126.361 18.504 126.217 18.272C126.073 18.04 125.877 17.864 125.629 17.744C125.389 17.616 125.109 17.552 124.789 17.552ZM129.601 16.028H130.861V21.908H129.601V16.028ZM123.733 22.436H124.981V23.66H129.613V22.436H130.861V26.852H123.733V22.436ZM124.981 24.632V25.844H129.613V24.632H124.981ZM133.572 17.048H140.58V18.068H133.572V17.048ZM132.576 24.524H142.488V25.556H132.576V24.524ZM134.856 20.972H136.092V24.872H134.856V20.972ZM140.196 17.048H141.444V18.188C141.444 18.644 141.44 19.12 141.432 19.616C141.424 20.112 141.392 20.648 141.336 21.224C141.288 21.8 141.2 22.444 141.072 23.156L139.824 23.024C140.008 22.016 140.116 21.128 140.148 20.36C140.18 19.584 140.196 18.86 140.196 18.188V17.048ZM137.568 20.972H138.804V24.872H137.568V20.972ZM145.859 21.716H147.119V23.876H145.859V21.716ZM149.543 21.716H150.779V23.876H149.543V21.716ZM143.375 21.224H153.287V22.232H143.375V21.224ZM144.467 23.444H152.075V26.996H150.815V24.44H144.467V23.444ZM148.331 16.256C149.123 16.256 149.811 16.344 150.395 16.52C150.979 16.688 151.431 16.932 151.751 17.252C152.071 17.564 152.231 17.94 152.231 18.38C152.231 18.828 152.071 19.212 151.751 19.532C151.431 19.844 150.979 20.088 150.395 20.264C149.811 20.432 149.123 20.516 148.331 20.516C147.539 20.516 146.847 20.432 146.255 20.264C145.671 20.088 145.219 19.844 144.899 19.532C144.579 19.212 144.419 18.828 144.419 18.38C144.419 17.94 144.579 17.564 144.899 17.252C145.219 16.932 145.671 16.688 146.255 16.52C146.847 16.344 147.539 16.256 148.331 16.256ZM148.331 17.24C147.787 17.24 147.319 17.284 146.927 17.372C146.535 17.46 146.235 17.588 146.027 17.756C145.819 17.924 145.715 18.132 145.715 18.38C145.715 18.628 145.819 18.836 146.027 19.004C146.235 19.172 146.535 19.304 146.927 19.4C147.319 19.488 147.787 19.532 148.331 19.532C148.875 19.532 149.339 19.488 149.723 19.4C150.115 19.304 150.415 19.172 150.623 19.004C150.831 18.836 150.935 18.628 150.935 18.38C150.935 18.132 150.831 17.924 150.623 17.756C150.415 17.588 150.115 17.46 149.723 17.372C149.339 17.284 148.875 17.24 148.331 17.24ZM158.638 20.276H160.558V21.296H158.638V20.276ZM156.274 18.932H157.234V19.376C157.234 19.936 157.182 20.488 157.078 21.032C156.974 21.568 156.818 22.08 156.61 22.568C156.41 23.056 156.154 23.496 155.842 23.888C155.53 24.272 155.166 24.584 154.75 24.824L154.03 23.876C154.406 23.652 154.734 23.376 155.014 23.048C155.302 22.72 155.538 22.356 155.722 21.956C155.906 21.548 156.042 21.128 156.13 20.696C156.226 20.256 156.274 19.816 156.274 19.376V18.932ZM156.502 18.932H157.462V19.376C157.462 19.8 157.506 20.224 157.594 20.648C157.69 21.064 157.83 21.464 158.014 21.848C158.206 22.224 158.442 22.568 158.722 22.88C159.002 23.184 159.33 23.436 159.706 23.636L159.01 24.584C158.45 24.28 157.982 23.86 157.606 23.324C157.238 22.78 156.962 22.168 156.778 21.488C156.594 20.808 156.502 20.104 156.502 19.376V18.932ZM154.378 17.96H159.334V18.992H154.378V17.96ZM156.274 16.4H157.474V18.764H156.274V16.4ZM162.322 16.016H163.522V26.984H162.322V16.016ZM160.126 16.244H161.302V26.456H160.126V16.244ZM169.221 19.004H171.549V20.012H169.221V19.004ZM169.137 21.74H171.525V22.76H169.137V21.74ZM173.145 16.016H174.345V26.984H173.145V16.016ZM170.913 16.28H172.101V26.456H170.913V16.28ZM168.465 17.36H169.665C169.665 18.36 169.537 19.304 169.281 20.192C169.025 21.072 168.597 21.888 167.997 22.64C167.405 23.392 166.613 24.068 165.621 24.668L164.901 23.768C165.741 23.264 166.421 22.7 166.941 22.076C167.469 21.452 167.853 20.768 168.093 20.024C168.341 19.28 168.465 18.476 168.465 17.612V17.36ZM165.441 17.36H168.909V18.38H165.441V17.36ZM179.849 16.7H186.701V17.708H179.849V16.7ZM178.649 21.392H188.561V22.412H178.649V21.392ZM182.933 22.1H184.205V26.996H182.933V22.1ZM186.089 16.7H187.325V17.66C187.325 18.044 187.317 18.452 187.301 18.884C187.293 19.316 187.257 19.792 187.193 20.312C187.137 20.824 187.041 21.392 186.905 22.016L185.657 21.86C185.873 20.964 185.997 20.18 186.029 19.508C186.069 18.836 186.089 18.22 186.089 17.66V16.7ZM193.768 22.208H195.016V23.876H193.768V22.208ZM189.448 21.488H199.36V22.496H189.448V21.488ZM190.54 23.6H198.148V26.96H196.888V24.596H190.54V23.6ZM193.768 15.992H195.016V17.564H193.768V15.992ZM193.708 17.684H194.812V17.888C194.812 18.32 194.704 18.716 194.488 19.076C194.272 19.428 193.964 19.736 193.564 20C193.172 20.264 192.7 20.48 192.148 20.648C191.604 20.808 191 20.916 190.336 20.972L189.964 20.024C190.548 19.976 191.068 19.892 191.524 19.772C191.988 19.644 192.38 19.484 192.7 19.292C193.028 19.1 193.276 18.884 193.444 18.644C193.62 18.404 193.708 18.152 193.708 17.888V17.684ZM193.984 17.684H195.088V17.888C195.088 18.152 195.172 18.404 195.34 18.644C195.508 18.884 195.752 19.1 196.072 19.292C196.4 19.484 196.792 19.644 197.248 19.772C197.712 19.892 198.24 19.976 198.832 20.024L198.448 20.972C197.792 20.916 197.188 20.808 196.636 20.648C196.092 20.48 195.62 20.264 195.22 20C194.828 19.736 194.524 19.428 194.308 19.076C194.092 18.716 193.984 18.32 193.984 17.888V17.684ZM190.432 17.06H198.376V18.044H190.432V17.06Z" fill="#62C0B4"/>
<path d="M18.984 59.324H10.584V56.44H18.984V59.324ZM12.656 63.188H5.74V60.332H23.828V63.188H16.52C16.3147 63.8973 15.904 64.5507 15.288 65.148L15.54 65.204L16.576 64.532C17.024 64.252 17.4907 64.112 17.976 64.112C18.2373 64.112 18.536 64.1587 18.872 64.252L24.892 66.352L23.016 68.956L15.848 66.156C15.5867 66.044 15.2787 65.988 14.924 65.988C14.5507 65.988 14.224 66.0533 13.944 66.184L13.664 66.324C12.0587 67.22 9.65067 68.1067 6.44 68.984L4.648 66.464C6.86933 65.9227 8.624 65.3907 9.912 64.868C11.2187 64.3267 12.1333 63.7667 12.656 63.188ZM16.632 72.456V73.576C18.7787 73.744 20.4307 74.22 21.588 75.004C22.7453 75.788 23.324 76.8147 23.324 78.084C23.324 79.5213 22.5773 80.6413 21.084 81.444C19.5907 82.2467 17.4907 82.648 14.784 82.648C12.0587 82.648 9.94933 82.2467 8.456 81.444C6.96267 80.6413 6.216 79.5213 6.216 78.084C6.216 76.8147 6.79467 75.788 7.952 75.004C9.128 74.22 10.7893 73.744 12.936 73.576V72.456H3.22V69.544H26.348V72.456H16.632ZM14.784 76.236C13.1973 76.236 12.012 76.3947 11.228 76.712C10.4627 77.0107 10.08 77.4213 10.08 77.944V78.224C10.08 78.728 10.4627 79.1293 11.228 79.428C12.012 79.7453 13.1973 79.904 14.784 79.904C16.3707 79.904 17.5467 79.7453 18.312 79.428C19.0773 79.1293 19.46 78.728 19.46 78.224V77.944C19.46 77.4213 19.0773 77.0107 18.312 76.712C17.5467 76.3947 16.3707 76.236 14.784 76.236ZM51.0066 65.064H47.3106V70.496H43.5586V56.188H47.3106V61.928H51.0066V65.064ZM41.7386 68.424C38.5279 69.04 34.7573 69.348 30.4266 69.348H27.8786V57.532H31.6026V66.268C35.3173 66.212 38.5466 65.9227 41.2906 65.4L41.7386 68.424ZM31.2106 71.728H47.3106V82.06H33.5906C32.0039 82.06 31.2106 81.2667 31.2106 79.68V71.728ZM34.9066 79.064H43.6146V74.724H34.9066V79.064Z" fill="#009BB4"/>
<path d="M96.2589 82H80.5989L67.8969 52.826H67.6649C67.6649 52.826 67.6843 53.174 67.7229 53.87C67.7616 54.5273 67.8196 55.3973 67.8969 56.48C67.9743 57.5627 68.0323 58.7227 68.0709 59.96C68.1483 61.1587 68.1869 62.28 68.1869 63.324V82H57.7469V40.588H73.3489L85.9929 69.356H86.1669C86.1669 69.356 86.1476 69.0273 86.1089 68.37C86.0703 67.7127 86.0123 66.862 85.9349 65.818C85.8963 64.774 85.8576 63.672 85.8189 62.512C85.7803 61.352 85.7609 60.2887 85.7609 59.322V40.588H96.2589V82Z" fill="#003B90"/>
<path d="M127.048 64.756H123.352V70.132H119.6V56.188H123.352V61.62H127.048V64.756ZM105.376 70.468L102.604 68.088C104.545 66.7627 105.983 65.5027 106.916 64.308C107.849 63.0947 108.353 61.8347 108.428 60.528H103.584V57.448H117.024V60.528H112.152C112.133 61.9653 111.769 63.328 111.06 64.616L111.228 64.728L112.012 64.168C112.329 63.944 112.656 63.832 112.992 63.832C113.309 63.832 113.655 63.9533 114.028 64.196L118.116 67.528L115.344 69.964L110.976 66.156C110.771 66.0253 110.593 65.96 110.444 65.96C110.313 65.96 110.173 66.016 110.024 66.128C109.483 66.8187 108.839 67.5093 108.092 68.2C107.345 68.872 106.44 69.628 105.376 70.468ZM119.656 71.392H123.352V82.06H109.688C108.101 82.06 107.308 81.2667 107.308 79.68V71.392H111.004V73.8H119.656V71.392ZM119.656 76.74H111.004V79.12H119.656V76.74ZM143.783 61.312H130.091V58.148H147.507V60.304C147.507 62.5813 147.385 64.7747 147.143 66.884C146.919 68.9747 146.629 70.804 146.275 72.372L142.635 71.784C143.344 68.48 143.727 64.9893 143.783 61.312ZM150.307 75.228V78.392H127.179V75.228H135.243V67.08H138.995V75.228H150.307Z" fill="#62C0B4"/>
</svg>
