<svg width="141" height="109" viewBox="0 0 141 109" fill="none" xmlns="http://www.w3.org/2000/svg">
<mask id="mask0_1344_2284" style="mask-type:alpha" maskUnits="userSpaceOnUse" x="0" y="0" width="142" height="109">
<path d="M28.0918 28.8164C28.4547 28.5504 28.987 28.6237 29.2773 29.0107C29.5433 29.3737 29.471 29.906 29.084 30.1963C28.4065 30.6802 27.7529 31.188 27.0996 31.6719C21.1474 36.1964 16.0908 40.9391 12.0742 45.6572C8.05769 50.3753 5.10583 55.0693 3.41211 59.4971C2.27501 62.4487 1.69342 65.3033 1.69336 67.9404C1.69336 70.2632 2.12941 72.441 3.04883 74.4492C3.94409 76.4574 5.27523 78.1993 6.99316 79.7236C8.71108 81.2479 10.8162 82.5065 13.2842 83.5469C18.196 85.6276 24.4872 86.668 31.7217 86.668C42.8035 86.6679 56.0631 84.2002 69.8789 79.2402L66.3701 70.7471C66.2493 70.4568 66.2977 70.1178 66.4912 69.876C66.6847 69.6343 66.9992 69.5136 67.3135 69.5859L102.326 76.5059L102.398 76.4336C102.689 76.482 102.906 76.6754 103.027 76.9414C103.124 77.2076 103.1 77.4983 102.955 77.7402L83.9121 107.403C83.7669 107.645 83.4767 107.791 83.1621 107.791C82.8477 107.767 82.5817 107.597 82.4365 107.331L78.9043 100.532C64.2656 106 50.1345 108.759 38.2783 108.759C32.7132 108.759 27.6803 108.154 23.3008 106.944C18.9457 105.735 15.244 103.895 12.4131 101.403C10.5258 99.7581 9.04944 97.7982 8.0332 95.5723C7.74285 94.919 7.50097 94.2654 7.2832 93.5879C7.13807 93.1282 7.38014 92.6686 7.83984 92.5234C8.29949 92.3784 8.75914 92.6204 8.9043 93.0801C9.09784 93.6849 9.31592 94.2895 9.58203 94.8701C10.4772 96.8782 11.8076 98.6203 13.5254 100.145C15.2433 101.669 17.3485 102.927 19.8164 103.968C24.7282 106.049 31.0194 107.089 38.2539 107.089C50.0375 107.089 64.2655 104.307 79.001 98.7178H79.5088C79.5328 98.7417 79.557 98.7412 79.5811 98.7412C79.6052 98.7654 79.6543 98.7656 79.6543 98.7656C79.6785 98.7898 79.7266 98.8145 79.7266 98.8145C79.7496 98.8374 79.7946 98.8602 79.7988 98.8623C79.823 98.8623 79.8721 98.9111 79.8721 98.9111L79.9199 98.959C79.9441 98.9832 79.9688 99.0322 79.9688 99.0322C79.9928 99.0563 80.0166 99.0804 80.0166 99.1045V99.1289L83.2109 105.274L100.777 77.9092L68.5723 71.5459L71.8145 79.3857C71.911 79.6033 71.9111 79.8449 71.8145 80.0625C71.7177 80.2803 71.5478 80.4499 71.3301 80.5225C57.0544 85.7244 43.3108 88.3379 31.7451 88.3379C26.1801 88.3379 21.147 87.7322 16.7676 86.5225C12.4126 85.3127 8.7107 83.4744 5.87988 80.9824C3.99263 79.3372 2.51624 77.3773 1.5 75.1514C0.483759 72.9012 0 70.4809 0 67.9404C5.85885e-05 65.0371 0.653306 62.0127 1.83887 58.8916C3.02448 55.7946 4.79079 52.6008 7.04102 49.3828C11.5415 42.9468 18.0509 36.4388 26.084 30.3174C26.7373 29.8093 27.4143 29.3245 28.0918 28.8164ZM139.395 51.1494C139.564 50.7139 140.072 50.4957 140.508 50.665H140.459C140.894 50.8344 141.113 51.3428 140.943 51.7783C138.959 56.7384 135.571 61.892 130.998 67.0215C126.425 72.1508 120.691 77.2318 114.013 82.0225C113.626 82.3128 113.093 82.2161 112.827 81.8291C112.537 81.442 112.633 80.9097 113.021 80.6436C119.626 75.9012 125.264 70.8923 129.74 65.8838C134.216 60.8755 137.507 55.8674 139.395 51.1494ZM39.6816 45.6807C40.0687 45.4146 40.601 45.5359 40.8672 45.9229C41.1333 46.31 41.0121 46.8422 40.625 47.1084C38.1329 48.7536 35.7863 50.4238 33.5361 52.1416C25.5757 58.2146 19.1881 64.6504 14.8086 70.917C14.5424 71.3041 14.0092 71.4009 13.6221 71.1348C13.2352 70.8686 13.1385 70.3362 13.4043 69.9492V69.9004C17.9048 63.4644 24.4136 56.9073 32.4951 50.7617C34.7696 49.0438 37.1652 47.326 39.6816 45.6807ZM61.2646 0C61.5792 0.0241954 61.8451 0.193811 61.9902 0.459961L66.4668 8.83105C80.2828 3.91938 93.5425 1.45215 104.77 1.45215C110.335 1.45215 115.368 2.05683 119.747 3.2666C124.102 4.47637 127.804 6.31553 130.635 8.80762C132.522 10.4529 133.998 12.4127 135.015 14.6387C136.031 16.8888 136.515 19.3082 136.515 21.8486C136.515 24.994 135.765 28.309 134.361 31.6963C132.958 35.0836 130.925 38.5677 128.288 42.0518L128.216 42.0273C122.965 49.0198 115.415 56.0605 106.124 62.5449C105.737 62.8109 105.205 62.7142 104.938 62.3271C104.673 61.9401 104.769 61.4077 105.156 61.1416C112.028 56.3509 117.933 51.2456 122.603 46.1162C127.296 41.0111 130.732 35.8575 132.74 31.0186C134.095 27.8006 134.772 24.7035 134.772 21.8242C134.772 19.5015 134.337 17.3236 133.418 15.3154C132.523 13.3073 131.192 11.5653 129.474 10.041C127.756 8.51677 125.651 7.25815 123.183 6.21777C118.271 4.13706 111.98 3.09668 104.745 3.09668C93.5907 3.09671 80.234 5.61364 66.3213 10.6221C65.9344 10.7669 65.4748 10.5977 65.2812 10.2109L61.168 2.5166L43.8438 30.6318L76.2666 36.4141L73.8223 29.833V29.3975C73.8464 29.3734 73.8467 29.3493 73.8467 29.3252C73.8709 29.301 73.8711 29.2761 73.8711 29.252C73.8944 29.2285 73.9175 29.1826 73.9189 29.1797C73.9422 29.1565 73.966 29.111 73.9678 29.1074C73.9678 29.0832 74.0166 29.0342 74.0166 29.0342C74.0171 29.0101 74.0634 28.963 74.0645 28.9619C74.0879 28.9384 74.134 28.9145 74.1367 28.9131C74.1609 28.8889 74.21 28.8652 74.21 28.8652C74.2341 28.8169 74.2581 28.8164 74.2822 28.8164C74.3052 28.7936 74.3498 28.793 74.3545 28.793C87.6622 24.2201 100.39 21.921 111.229 21.9209C116.722 21.9209 121.731 22.5263 126.062 23.7119C126.522 23.8331 126.788 24.2924 126.667 24.752C126.546 25.2116 126.087 25.4773 125.627 25.3564C121.465 24.2193 116.625 23.6387 111.254 23.6387C100.874 23.6387 88.6059 25.7921 75.7578 30.123L78.4199 37.2852C78.5167 37.5755 78.468 37.8899 78.2744 38.1318C78.0809 38.3737 77.7668 38.4711 77.4766 38.4229L42.3438 32.1553C42.0776 32.1069 41.8348 31.938 41.7139 31.6719C41.5929 31.4058 41.6175 31.115 41.7627 30.873L60.5146 0.411133C60.6598 0.1451 60.9502 2.77212e-05 61.2646 0Z" fill="#56EEDA"/>
</mask>
<g mask="url(#mask0_1344_2284)">
<path d="M49.8201 57.8084H-12.6901V-9.39969H159.33V122.667H49.8201V57.8084Z" fill="#62C0B4"/>
</g>
</svg>
