<svg width="20" height="20" viewBox="0 0 20 20" fill="none" xmlns="http://www.w3.org/2000/svg">
<path d="M9.99996 9.34167C8.09163 9.34167 6.54163 7.83334 6.54163 5.975C6.54163 4.11667 8.09163 2.60834 9.99996 2.60834C11.9083 2.60834 13.4583 4.11667 13.4583 5.975C13.4583 7.83334 11.9083 9.34167 9.99996 9.34167ZM9.99996 4.00834C8.86663 4.00834 7.94996 4.89167 7.94996 5.975C7.94996 7.05834 8.87496 7.94167 9.99996 7.94167C11.125 7.94167 12.05 7.05834 12.05 5.975C12.05 4.89167 11.125 4.00834 9.99996 4.00834Z" fill="#6C6C6C"/>
<path d="M14.4084 17.3917C14.0167 17.3917 13.7084 17.075 13.7084 16.6917V14.3083C13.7084 12.8417 12.4667 11.65 10.9417 11.65H9.06669C7.54169 11.65 6.30002 12.8417 6.30002 14.3083V16.6917C6.30002 17.0833 5.98336 17.3917 5.60002 17.3917C5.21669 17.3917 4.90002 17.075 4.90002 16.6917V14.3083C4.90002 12.0667 6.76669 10.25 9.06669 10.25H10.9417C13.2417 10.25 15.1084 12.075 15.1084 14.3083V16.6917C15.1084 17.0833 14.7917 17.3917 14.4084 17.3917Z" fill="#6C6C6C"/>
</svg>
