<svg width="192" height="51" viewBox="0 0 192 51" fill="none" xmlns="http://www.w3.org/2000/svg">
<path d="M10.9791 10.9968H6.23566V6.24573H7.85777V9.37545H9.35354V6.24573H10.9791V10.9968Z" fill="#62C0B4"/>
<path d="M4.74683 4.74765V3.11951H0V6.24581V7.87395H3.12471V9.3687H0V10.9968H4.74341V7.87395V6.24581H1.6187V4.74765H4.74683Z" fill="#009BB4"/>
<path d="M7.86471 0H3.12129V4.75103H4.74682V1.6213H6.24259V4.75103H7.86471V0Z" fill="#003B90"/>
<path d="M22.2191 1.85041H23.0511V5.97041H22.2191V1.85041ZM22.8271 3.45841H24.0911V4.15441H22.8271V3.45841ZM18.3791 6.33841H23.0511V9.06641H18.3791V6.33841ZM22.2351 7.01041H19.2031V8.39441H22.2351V7.01041ZM17.6751 2.20241H18.5071V5.16241H17.6751V2.20241ZM17.6751 4.81041H18.2671C18.7791 4.81041 19.3071 4.78908 19.8511 4.74641C20.4004 4.69841 20.9684 4.61841 21.5551 4.50641L21.6511 5.17841C21.0431 5.30641 20.4591 5.39441 19.8991 5.44241C19.3444 5.48508 18.8004 5.50641 18.2671 5.50641H17.6751V4.81041ZM28.2105 4.24241H30.2025V4.92241H28.2105V4.24241ZM26.3465 2.44241H27.0265V3.64241C27.0265 4.07441 26.9811 4.49575 26.8905 4.90641C26.7998 5.31175 26.6665 5.69308 26.4905 6.05041C26.3198 6.40241 26.1091 6.71708 25.8585 6.99441C25.6131 7.26641 25.3331 7.48241 25.0185 7.64241L24.4985 6.97841C24.7865 6.83975 25.0425 6.65308 25.2665 6.41841C25.4958 6.18375 25.6905 5.91708 25.8505 5.61841C26.0158 5.31441 26.1385 4.99708 26.2185 4.66641C26.3038 4.33041 26.3465 3.98908 26.3465 3.64241V2.44241ZM26.5145 2.44241H27.1865V3.64241C27.1865 3.97841 27.2265 4.31175 27.3065 4.64241C27.3918 4.96775 27.5145 5.27441 27.6745 5.56241C27.8345 5.84508 28.0265 6.09841 28.2505 6.32241C28.4745 6.54641 28.7278 6.72241 29.0105 6.85041L28.5065 7.52241C28.1918 7.36241 27.9118 7.15175 27.6665 6.89041C27.4211 6.62375 27.2131 6.31975 27.0425 5.97841C26.8718 5.63708 26.7411 5.26908 26.6505 4.87441C26.5598 4.47441 26.5145 4.06375 26.5145 3.64241V2.44241ZM29.7785 1.84241H30.6185V9.17041H29.7785V1.84241ZM34.6258 5.30641H35.4578V6.37841H34.6258V5.30641ZM35.0498 1.93041C35.8712 1.93041 36.5085 2.03975 36.9618 2.25841C37.4205 2.47175 37.6498 2.77841 37.6498 3.17841C37.6498 3.58375 37.4205 3.89575 36.9618 4.11441C36.5085 4.33308 35.8712 4.44241 35.0498 4.44241C34.2285 4.44241 33.5885 4.33308 33.1298 4.11441C32.6712 3.89575 32.4418 3.58375 32.4418 3.17841C32.4418 2.77841 32.6712 2.47175 33.1298 2.25841C33.5885 2.03975 34.2285 1.93041 35.0498 1.93041ZM35.0418 2.54641C34.6685 2.54641 34.3512 2.57041 34.0898 2.61841C33.8338 2.66641 33.6392 2.73841 33.5058 2.83441C33.3778 2.92508 33.3138 3.03975 33.3138 3.17841C33.3138 3.31708 33.3778 3.43441 33.5058 3.53041C33.6392 3.62641 33.8338 3.69841 34.0898 3.74641C34.3512 3.79441 34.6685 3.81841 35.0418 3.81841C35.4258 3.81841 35.7458 3.79441 36.0018 3.74641C36.2578 3.69841 36.4525 3.62641 36.5858 3.53041C36.7192 3.43441 36.7858 3.31708 36.7858 3.17841C36.7858 3.03975 36.7192 2.92508 36.5858 2.83441C36.4525 2.73841 36.2578 2.66641 36.0018 2.61841C35.7458 2.57041 35.4258 2.54641 35.0418 2.54641ZM31.7458 4.84241H38.3538V5.51441H31.7458V4.84241ZM32.5218 6.09841H37.5218V7.85041H33.3618V8.62641H32.5378V7.25841H36.6978V6.73041H32.5218V6.09841ZM32.5378 8.45041H37.7298V9.09041H32.5378V8.45041ZM44.3772 1.84241H45.1772V9.15441H44.3772V1.84241ZM43.2572 4.72241H44.5852V5.41041H43.2572V4.72241ZM42.7292 1.99441H43.5132V8.79441H42.7292V1.99441ZM39.1852 6.73041H39.6732C40.0092 6.73041 40.3185 6.72508 40.6012 6.71441C40.8839 6.70375 41.1585 6.68508 41.4252 6.65841C41.6972 6.62641 41.9745 6.58375 42.2572 6.53041L42.3372 7.21841C42.0439 7.27708 41.7585 7.32241 41.4812 7.35441C41.2039 7.38108 40.9185 7.39975 40.6252 7.41041C40.3372 7.42108 40.0199 7.42641 39.6732 7.42641H39.1852V6.73041ZM39.1852 2.71441H41.8892V3.39441H40.0092V7.05041H39.1852V2.71441ZM50.0707 2.78641C50.5507 2.78641 50.948 2.84775 51.2627 2.97041C51.5774 3.09308 51.812 3.27441 51.9667 3.51441C52.1214 3.75441 52.1987 4.05575 52.1987 4.41841C52.1987 4.71175 52.1454 4.95975 52.0387 5.16241C51.932 5.35975 51.7934 5.52241 51.6227 5.65041C51.4574 5.77308 51.2787 5.87441 51.0867 5.95441L52.6707 8.49841H51.6627L50.3107 6.18641H49.3107V8.49841H48.4387V2.78641H50.0707ZM50.0307 3.50641H49.3107V5.48241H50.0627C50.484 5.48241 50.796 5.39708 50.9987 5.22641C51.2014 5.05575 51.3027 4.79975 51.3027 4.45841C51.3027 4.23441 51.2574 4.05308 51.1667 3.91441C51.076 3.77575 50.9374 3.67441 50.7507 3.61041C50.564 3.54108 50.324 3.50641 50.0307 3.50641ZM55.1094 8.49841H52.8934V8.00241L53.5734 7.80241V3.49041L52.8934 3.28241V2.78641H55.1094V3.28241L54.4374 3.49041V7.80241L55.1094 8.00241V8.49841ZM59.2975 6.95441C59.2975 7.29575 59.2149 7.58641 59.0495 7.82641C58.8842 8.06641 58.6469 8.25308 58.3375 8.38641C58.0282 8.51441 57.6602 8.57841 57.2335 8.57841C57.0255 8.57841 56.8255 8.56508 56.6335 8.53841C56.4415 8.51708 56.2629 8.48508 56.0975 8.44241C55.9322 8.39975 55.7855 8.34641 55.6575 8.28241V7.46641C55.8709 7.56241 56.1215 7.65041 56.4095 7.73041C56.6975 7.80508 56.9909 7.84241 57.2895 7.84241C57.5455 7.84241 57.7589 7.80775 57.9295 7.73841C58.1002 7.66908 58.2282 7.57308 58.3135 7.45041C58.3989 7.32775 58.4415 7.18375 58.4415 7.01841C58.4415 6.84241 58.3962 6.69575 58.3055 6.57841C58.2202 6.45575 58.0842 6.34375 57.8975 6.24241C57.7162 6.13575 57.4709 6.02375 57.1615 5.90641C56.9482 5.82641 56.7535 5.73841 56.5775 5.64241C56.4069 5.54108 56.2549 5.42375 56.1215 5.29041C55.9935 5.15708 55.8949 5.00241 55.8255 4.82641C55.7562 4.65041 55.7215 4.44508 55.7215 4.21041C55.7215 3.89575 55.7989 3.62641 55.9535 3.40241C56.1135 3.17841 56.3322 3.00775 56.6095 2.89041C56.8869 2.76775 57.2095 2.70641 57.5775 2.70641C57.8869 2.70641 58.1722 2.73841 58.4335 2.80241C58.7002 2.86108 58.9535 2.94375 59.1935 3.05041L58.9215 3.76241C58.7029 3.67175 58.4815 3.59708 58.2575 3.53841C58.0335 3.47975 57.7989 3.45041 57.5535 3.45041C57.3402 3.45041 57.1615 3.48241 57.0175 3.54641C56.8735 3.61041 56.7642 3.69841 56.6895 3.81041C56.6202 3.92241 56.5855 4.05308 56.5855 4.20241C56.5855 4.37841 56.6255 4.52508 56.7055 4.64241C56.7855 4.75975 56.9135 4.86908 57.0895 4.97041C57.2655 5.06641 57.4975 5.17308 57.7855 5.29041C58.1055 5.41308 58.3775 5.54641 58.6015 5.69041C58.8309 5.83441 59.0042 6.00775 59.1215 6.21041C59.2389 6.40775 59.2975 6.65575 59.2975 6.95441ZM63.472 8.49841H60.256V2.78641H63.472V3.52241H61.12V5.15441H63.328V5.88241H61.12V7.75441H63.472V8.49841ZM65.8851 2.45041H66.5651V3.65041C66.5651 4.07175 66.5171 4.48775 66.4211 4.89841C66.3304 5.30375 66.1971 5.68241 66.0211 6.03441C65.8504 6.38641 65.6398 6.70108 65.3891 6.97841C65.1384 7.25041 64.8558 7.46641 64.5411 7.62641L64.0371 6.94641C64.3198 6.80775 64.5758 6.62375 64.8051 6.39441C65.0344 6.15975 65.2291 5.89575 65.3891 5.60241C65.5491 5.30375 65.6718 4.98908 65.7571 4.65841C65.8424 4.32241 65.8851 3.98641 65.8851 3.65041V2.45041ZM66.0371 2.45041H66.7171V3.65041C66.7171 3.97575 66.7571 4.29841 66.8371 4.61841C66.9171 4.93308 67.0344 5.23441 67.1891 5.52241C67.3491 5.80508 67.5384 6.05841 67.7571 6.28241C67.9758 6.50641 68.2211 6.68508 68.4931 6.81841L67.9811 7.49041C67.6771 7.33041 67.4051 7.11975 67.1651 6.85841C66.9304 6.59175 66.7278 6.28775 66.5571 5.94641C66.3918 5.60508 66.2638 5.23975 66.1731 4.85041C66.0824 4.46108 66.0371 4.06108 66.0371 3.65041V2.45041ZM68.9811 1.85041H69.8211V9.16241H68.9811V1.85041ZM69.6371 4.73841H70.9571V5.44241H69.6371V4.73841ZM75.0365 3.53041H76.9405V4.21841H75.0365V3.53041ZM73.3565 2.17041C73.7245 2.17041 74.0525 2.24241 74.3405 2.38641C74.6285 2.53041 74.8525 2.73308 75.0125 2.99441C75.1778 3.25041 75.2605 3.54641 75.2605 3.88241C75.2605 4.21841 75.1778 4.51708 75.0125 4.77841C74.8525 5.03441 74.6285 5.23708 74.3405 5.38641C74.0525 5.53041 73.7245 5.60241 73.3565 5.60241C72.9938 5.60241 72.6685 5.53041 72.3805 5.38641C72.0925 5.23708 71.8658 5.03441 71.7005 4.77841C71.5405 4.51708 71.4605 4.21841 71.4605 3.88241C71.4605 3.54641 71.5405 3.25041 71.7005 2.99441C71.8658 2.73308 72.0925 2.53041 72.3805 2.38641C72.6685 2.24241 72.9938 2.17041 73.3565 2.17041ZM73.3645 2.86641C73.1511 2.86641 72.9591 2.90908 72.7885 2.99441C72.6231 3.07441 72.4925 3.19175 72.3965 3.34641C72.3058 3.50108 72.2605 3.67975 72.2605 3.88241C72.2605 4.08508 72.3058 4.26375 72.3965 4.41841C72.4925 4.57308 72.6231 4.69308 72.7885 4.77841C72.9538 4.85841 73.1431 4.89841 73.3565 4.89841C73.5698 4.89841 73.7591 4.85841 73.9245 4.77841C74.0898 4.69308 74.2205 4.57308 74.3165 4.41841C74.4125 4.26375 74.4605 4.08508 74.4605 3.88241C74.4605 3.67975 74.4125 3.50108 74.3165 3.34641C74.2205 3.19175 74.0898 3.07441 73.9245 2.99441C73.7645 2.90908 73.5778 2.86641 73.3645 2.86641ZM76.5725 1.85041H77.4125V5.77041H76.5725V1.85041ZM72.6605 6.12241H73.4925V6.93841H76.5805V6.12241H77.4125V9.06641H72.6605V6.12241ZM73.4925 7.58641V8.39441H76.5805V7.58641H73.4925ZM81.906 2.29841H82.57V3.21841C82.57 3.60241 82.506 3.98108 82.378 4.35441C82.25 4.72241 82.0606 5.05575 81.81 5.35441C81.5646 5.65308 81.2526 5.88508 80.874 6.05041L80.426 5.40241C80.7566 5.25308 81.0313 5.06108 81.25 4.82641C81.4686 4.58641 81.6313 4.32775 81.738 4.05041C81.85 3.76775 81.906 3.49041 81.906 3.21841V2.29841ZM82.058 2.29841H82.714V3.21841C82.714 3.47975 82.7673 3.73841 82.874 3.99441C82.9806 4.25041 83.1406 4.48241 83.354 4.69041C83.5673 4.89841 83.8286 5.06641 84.138 5.19441L83.698 5.82641C83.3353 5.68241 83.0313 5.47708 82.786 5.21041C82.5406 4.94375 82.3566 4.63975 82.234 4.29841C82.1166 3.95175 82.058 3.59175 82.058 3.21841V2.29841ZM85.866 1.85041H86.666V6.34641H85.866V1.85041ZM84.826 3.73041H86.106V4.41041H84.826V3.73041ZM84.306 1.98641H85.098V6.11441H84.306V1.98641ZM84.226 6.47441C84.7326 6.47441 85.17 6.52775 85.538 6.63441C85.9113 6.74108 86.1966 6.89575 86.394 7.09841C86.5966 7.29575 86.698 7.53575 86.698 7.81841C86.698 8.09575 86.5966 8.33308 86.394 8.53041C86.1966 8.73308 85.9113 8.88508 85.538 8.98641C85.17 9.09308 84.7326 9.14641 84.226 9.14641C83.7246 9.14641 83.2873 9.09308 82.914 8.98641C82.5406 8.88508 82.2526 8.73308 82.05 8.53041C81.8526 8.33308 81.754 8.09575 81.754 7.81841C81.754 7.53575 81.8526 7.29575 82.05 7.09841C82.2526 6.89575 82.5406 6.74108 82.914 6.63441C83.2873 6.52775 83.7246 6.47441 84.226 6.47441ZM84.226 7.11441C83.714 7.11441 83.3113 7.17575 83.018 7.29841C82.73 7.41575 82.586 7.58908 82.586 7.81841C82.586 8.03708 82.73 8.20775 83.018 8.33041C83.3113 8.45308 83.714 8.51441 84.226 8.51441C84.5673 8.51441 84.8606 8.48775 85.106 8.43441C85.3513 8.37575 85.538 8.29575 85.666 8.19441C85.794 8.09308 85.858 7.96775 85.858 7.81841C85.858 7.58908 85.714 7.41575 85.426 7.29841C85.1433 7.17575 84.7433 7.11441 84.226 7.11441ZM89.3133 2.41041C89.6333 2.41041 89.9107 2.51708 90.1453 2.73041C90.3853 2.93841 90.5693 3.23708 90.6973 3.62641C90.8253 4.01041 90.8893 4.47175 90.8893 5.01041C90.8893 5.54375 90.8253 6.00508 90.6973 6.39441C90.5693 6.78375 90.3853 7.08241 90.1453 7.29041C89.9107 7.49841 89.6333 7.60241 89.3133 7.60241C88.9987 7.60241 88.724 7.49841 88.4893 7.29041C88.2547 7.08241 88.0733 6.78375 87.9453 6.39441C87.8173 6.00508 87.7533 5.54375 87.7533 5.01041C87.7533 4.47175 87.8173 4.01041 87.9453 3.62641C88.0733 3.23708 88.2547 2.93841 88.4893 2.73041C88.7293 2.51708 89.004 2.41041 89.3133 2.41041ZM89.3133 3.20241C89.1533 3.20241 89.012 3.27175 88.8893 3.41041C88.772 3.54908 88.6813 3.75441 88.6173 4.02641C88.5533 4.29308 88.5213 4.62108 88.5213 5.01041C88.5213 5.38908 88.5533 5.71441 88.6173 5.98641C88.6813 6.25841 88.772 6.46641 88.8893 6.61041C89.012 6.74908 89.1533 6.81841 89.3133 6.81841C89.484 6.81841 89.628 6.74908 89.7453 6.61041C89.868 6.46641 89.9613 6.25841 90.0253 5.98641C90.0893 5.71441 90.1213 5.38908 90.1213 5.01041C90.1213 4.62108 90.0893 4.29308 90.0253 4.02641C89.9613 3.75441 89.868 3.54908 89.7453 3.41041C89.628 3.27175 89.484 3.20241 89.3133 3.20241ZM93.1133 1.84241H93.9133V9.15441H93.1133V1.84241ZM92.0733 4.69841H93.3933V5.37041H92.0733V4.69841ZM91.5053 1.98641H92.2893V8.81041H91.5053V1.98641ZM97.7047 2.61041H98.4327V2.87441C98.4327 3.13575 98.3847 3.38375 98.2887 3.61841C98.198 3.84775 98.0647 4.06375 97.8887 4.26641C97.7127 4.46375 97.5047 4.63975 97.2647 4.79441C97.03 4.94908 96.766 5.07975 96.4727 5.18641C96.1847 5.29308 95.8754 5.37308 95.5447 5.42641L95.2327 4.76241C95.5207 4.72508 95.7874 4.66375 96.0327 4.57841C96.2834 4.49308 96.51 4.38908 96.7127 4.26641C96.9207 4.14375 97.0967 4.00775 97.2407 3.85841C97.39 3.70908 97.5047 3.55175 97.5847 3.38641C97.6647 3.22108 97.7047 3.05041 97.7047 2.87441V2.61041ZM97.9287 2.61041H98.6567V2.87441C98.6567 3.05041 98.694 3.22108 98.7687 3.38641C98.8487 3.55175 98.9634 3.70908 99.1127 3.85841C99.262 4.00775 99.438 4.14375 99.6407 4.26641C99.8434 4.38908 100.07 4.49308 100.321 4.57841C100.571 4.66375 100.841 4.72508 101.129 4.76241L100.817 5.42641C100.486 5.37308 100.174 5.29308 99.8807 5.18641C99.5927 5.07975 99.3287 4.94908 99.0887 4.79441C98.8487 4.63975 98.6407 4.46375 98.4647 4.26641C98.294 4.06375 98.1607 3.84775 98.0647 3.61841C97.974 3.38375 97.9287 3.13575 97.9287 2.87441V2.61041ZM97.7447 6.41841H98.5767V9.15441H97.7447V6.41841ZM94.8727 5.95441H101.481V6.63441H94.8727V5.95441ZM95.4807 2.26641H100.865V2.93041H95.4807V2.26641ZM107.272 1.84241H108.112V9.15441H107.272V1.84241ZM105.12 2.61841H105.952C105.952 3.16241 105.893 3.68241 105.776 4.17841C105.659 4.67441 105.467 5.14641 105.2 5.59441C104.939 6.03708 104.592 6.44775 104.16 6.82641C103.733 7.20508 103.205 7.54641 102.576 7.85041L102.128 7.18641C102.837 6.84508 103.411 6.45575 103.848 6.01841C104.285 5.58108 104.605 5.09308 104.808 4.55441C105.016 4.01041 105.12 3.41308 105.12 2.76241V2.61841ZM102.488 2.61841H105.496V3.29041H102.488V2.61841ZM112.751 2.82641H114.687V3.47441H112.751V2.82641ZM112.751 4.16241H114.687V4.81041H112.751V4.16241ZM114.487 1.85041H115.327V5.63441H114.487V1.85041ZM110.567 5.95441H115.327V7.78641H111.407V8.82641H110.583V7.17041H114.495V6.61041H110.567V5.95441ZM110.583 8.41041H115.567V9.06641H110.583V8.41041ZM109.607 2.17041H110.439V3.12241H112.151V2.17041H112.975V5.37841H109.607V2.17041ZM110.439 3.77041V4.72241H112.151V3.77041H110.439ZM122.557 3.09041H124.077V3.77041H122.557V3.09041ZM122.557 4.43441H124.077V5.10641H122.557V4.43441ZM118.589 2.36241H122.437V3.04241H118.589V2.36241ZM118.485 5.97841L118.397 5.29041C118.797 5.29041 119.237 5.28775 119.717 5.28241C120.202 5.27175 120.693 5.25308 121.189 5.22641C121.69 5.19975 122.162 5.15975 122.605 5.10641L122.653 5.73041C122.194 5.80508 121.717 5.86108 121.221 5.89841C120.73 5.93575 120.25 5.95975 119.781 5.97041C119.312 5.97575 118.88 5.97841 118.485 5.97841ZM119.245 2.92241H120.061V5.52241H119.245V2.92241ZM120.973 2.92241H121.781V5.52241H120.973V2.92241ZM123.605 1.85041H124.445V6.33841H123.605V1.85041ZM122.013 6.47441C122.781 6.47441 123.384 6.59175 123.821 6.82641C124.258 7.05575 124.477 7.38375 124.477 7.81041C124.477 8.23708 124.258 8.56508 123.821 8.79441C123.384 9.02908 122.781 9.14641 122.013 9.14641C121.245 9.14641 120.64 9.02908 120.197 8.79441C119.76 8.56508 119.541 8.23708 119.541 7.81041C119.541 7.38375 119.76 7.05575 120.197 6.82641C120.64 6.59175 121.245 6.47441 122.013 6.47441ZM122.013 7.11441C121.666 7.11441 121.37 7.14108 121.125 7.19441C120.88 7.24775 120.693 7.32775 120.565 7.43441C120.442 7.53575 120.381 7.66108 120.381 7.81041C120.381 8.03441 120.522 8.20775 120.805 8.33041C121.088 8.45308 121.49 8.51441 122.013 8.51441C122.36 8.51441 122.653 8.48775 122.893 8.43441C123.138 8.37575 123.325 8.29575 123.453 8.19441C123.581 8.09308 123.645 7.96508 123.645 7.81041C123.645 7.66108 123.581 7.53575 123.453 7.43441C123.325 7.32775 123.138 7.24775 122.893 7.19441C122.653 7.14108 122.36 7.11441 122.013 7.11441ZM127.02 2.29841H127.684V3.21841C127.684 3.60241 127.62 3.98108 127.492 4.35441C127.364 4.72241 127.175 5.05575 126.924 5.35441C126.679 5.65308 126.367 5.88508 125.988 6.05041L125.54 5.40241C125.871 5.25308 126.146 5.06108 126.364 4.82641C126.583 4.58641 126.746 4.32775 126.852 4.05041C126.964 3.76775 127.02 3.49041 127.02 3.21841V2.29841ZM127.172 2.29841H127.828V3.21841C127.828 3.47975 127.882 3.73841 127.988 3.99441C128.095 4.25041 128.255 4.48241 128.468 4.69041C128.682 4.89841 128.943 5.06641 129.252 5.19441L128.812 5.82641C128.45 5.68241 128.146 5.47708 127.9 5.21041C127.655 4.94375 127.471 4.63975 127.348 4.29841C127.231 3.95175 127.172 3.59175 127.172 3.21841V2.29841ZM130.98 1.85041H131.78V6.34641H130.98V1.85041ZM129.94 3.73041H131.22V4.41041H129.94V3.73041ZM129.42 1.98641H130.212V6.11441H129.42V1.98641ZM129.34 6.47441C129.847 6.47441 130.284 6.52775 130.652 6.63441C131.026 6.74108 131.311 6.89575 131.508 7.09841C131.711 7.29575 131.812 7.53575 131.812 7.81841C131.812 8.09575 131.711 8.33308 131.508 8.53041C131.311 8.73308 131.026 8.88508 130.652 8.98641C130.284 9.09308 129.847 9.14641 129.34 9.14641C128.839 9.14641 128.402 9.09308 128.028 8.98641C127.655 8.88508 127.367 8.73308 127.164 8.53041C126.967 8.33308 126.868 8.09575 126.868 7.81841C126.868 7.53575 126.967 7.29575 127.164 7.09841C127.367 6.89575 127.655 6.74108 128.028 6.63441C128.402 6.52775 128.839 6.47441 129.34 6.47441ZM129.34 7.11441C128.828 7.11441 128.426 7.17575 128.132 7.29841C127.844 7.41575 127.7 7.58908 127.7 7.81841C127.7 8.03708 127.844 8.20775 128.132 8.33041C128.426 8.45308 128.828 8.51441 129.34 8.51441C129.682 8.51441 129.975 8.48775 130.22 8.43441C130.466 8.37575 130.652 8.29575 130.78 8.19441C130.908 8.09308 130.972 7.96775 130.972 7.81841C130.972 7.58908 130.828 7.41575 130.54 7.29841C130.258 7.17575 129.858 7.11441 129.34 7.11441ZM134.66 2.60241H135.348V3.13041C135.348 3.58375 135.265 4.00775 135.1 4.40241C134.94 4.79708 134.705 5.14375 134.396 5.44241C134.092 5.73575 133.721 5.95708 133.284 6.10641L132.852 5.45041C133.241 5.32241 133.569 5.13841 133.836 4.89841C134.102 4.65841 134.305 4.38641 134.444 4.08241C134.588 3.77308 134.66 3.45575 134.66 3.13041V2.60241ZM134.828 2.60241H135.516V3.13041C135.516 3.36508 135.553 3.59441 135.628 3.81841C135.708 4.03708 135.825 4.24241 135.98 4.43441C136.134 4.62641 136.321 4.79975 136.54 4.95441C136.764 5.10375 137.017 5.22641 137.3 5.32241L136.868 5.97041C136.441 5.83175 136.076 5.62108 135.772 5.33841C135.468 5.05575 135.233 4.72508 135.068 4.34641C134.908 3.96775 134.828 3.56241 134.828 3.13041V2.60241ZM137.972 1.84241H138.812V6.26641H137.972V1.84241ZM133.892 6.61841H138.812V9.16241H137.972V7.29841H133.892V6.61841ZM133.076 2.32241H137.068V2.99441H133.076V2.32241ZM143.667 3.53041H145.571V4.21841H143.667V3.53041ZM141.987 2.17041C142.355 2.17041 142.683 2.24241 142.971 2.38641C143.259 2.53041 143.483 2.73308 143.643 2.99441C143.808 3.25041 143.891 3.54641 143.891 3.88241C143.891 4.21841 143.808 4.51708 143.643 4.77841C143.483 5.03441 143.259 5.23708 142.971 5.38641C142.683 5.53041 142.355 5.60241 141.987 5.60241C141.624 5.60241 141.299 5.53041 141.011 5.38641C140.723 5.23708 140.496 5.03441 140.331 4.77841C140.171 4.51708 140.091 4.21841 140.091 3.88241C140.091 3.54641 140.171 3.25041 140.331 2.99441C140.496 2.73308 140.723 2.53041 141.011 2.38641C141.299 2.24241 141.624 2.17041 141.987 2.17041ZM141.995 2.86641C141.782 2.86641 141.59 2.90908 141.419 2.99441C141.254 3.07441 141.123 3.19175 141.027 3.34641C140.936 3.50108 140.891 3.67975 140.891 3.88241C140.891 4.08508 140.936 4.26375 141.027 4.41841C141.123 4.57308 141.254 4.69308 141.419 4.77841C141.584 4.85841 141.774 4.89841 141.987 4.89841C142.2 4.89841 142.39 4.85841 142.555 4.77841C142.72 4.69308 142.851 4.57308 142.947 4.41841C143.043 4.26375 143.091 4.08508 143.091 3.88241C143.091 3.67975 143.043 3.50108 142.947 3.34641C142.851 3.19175 142.72 3.07441 142.555 2.99441C142.395 2.90908 142.208 2.86641 141.995 2.86641ZM145.203 1.85041H146.043V5.77041H145.203V1.85041ZM141.291 6.12241H142.123V6.93841H145.211V6.12241H146.043V9.06641H141.291V6.12241ZM142.123 7.58641V8.39441H145.211V7.58641H142.123ZM147.85 2.53041H152.522V3.21041H147.85V2.53041ZM147.186 7.51441H153.794V8.20241H147.186V7.51441ZM148.706 5.14641H149.53V7.74641H148.706V5.14641ZM152.266 2.53041H153.098V3.29041C153.098 3.59441 153.096 3.91175 153.09 4.24241C153.085 4.57308 153.064 4.93041 153.026 5.31441C152.994 5.69841 152.936 6.12775 152.85 6.60241L152.018 6.51441C152.141 5.84241 152.213 5.25041 152.234 4.73841C152.256 4.22108 152.266 3.73841 152.266 3.29041V2.53041ZM150.514 5.14641H151.338V7.74641H150.514V5.14641ZM156.042 5.64241H156.882V7.08241H156.042V5.64241ZM158.498 5.64241H159.322V7.08241H158.498V5.64241ZM154.386 5.31441H160.994V5.98641H154.386V5.31441ZM155.114 6.79441H160.186V9.16241H159.346V7.45841H155.114V6.79441ZM157.69 2.00241C158.218 2.00241 158.677 2.06108 159.066 2.17841C159.455 2.29041 159.757 2.45308 159.97 2.66641C160.183 2.87441 160.29 3.12508 160.29 3.41841C160.29 3.71708 160.183 3.97308 159.97 4.18641C159.757 4.39441 159.455 4.55708 159.066 4.67441C158.677 4.78641 158.218 4.84241 157.69 4.84241C157.162 4.84241 156.701 4.78641 156.306 4.67441C155.917 4.55708 155.615 4.39441 155.402 4.18641C155.189 3.97308 155.082 3.71708 155.082 3.41841C155.082 3.12508 155.189 2.87441 155.402 2.66641C155.615 2.45308 155.917 2.29041 156.306 2.17841C156.701 2.06108 157.162 2.00241 157.69 2.00241ZM157.69 2.65841C157.327 2.65841 157.015 2.68775 156.754 2.74641C156.493 2.80508 156.293 2.89041 156.154 3.00241C156.015 3.11441 155.946 3.25308 155.946 3.41841C155.946 3.58375 156.015 3.72241 156.154 3.83441C156.293 3.94641 156.493 4.03441 156.754 4.09841C157.015 4.15708 157.327 4.18641 157.69 4.18641C158.053 4.18641 158.362 4.15708 158.618 4.09841C158.879 4.03441 159.079 3.94641 159.218 3.83441C159.357 3.72241 159.426 3.58375 159.426 3.41841C159.426 3.25308 159.357 3.11441 159.218 3.00241C159.079 2.89041 158.879 2.80508 158.618 2.74641C158.362 2.68775 158.053 2.65841 157.69 2.65841ZM164.561 4.68241H165.841V5.36241H164.561V4.68241ZM162.985 3.78641H163.625V4.08241C163.625 4.45575 163.591 4.82375 163.521 5.18641C163.452 5.54375 163.348 5.88508 163.209 6.21041C163.076 6.53575 162.905 6.82908 162.697 7.09041C162.489 7.34641 162.247 7.55441 161.969 7.71441L161.489 7.08241C161.74 6.93308 161.959 6.74908 162.145 6.53041C162.337 6.31175 162.495 6.06908 162.617 5.80241C162.74 5.53041 162.831 5.25041 162.889 4.96241C162.953 4.66908 162.985 4.37575 162.985 4.08241V3.78641ZM163.137 3.78641H163.777V4.08241C163.777 4.36508 163.807 4.64775 163.865 4.93041C163.929 5.20775 164.023 5.47441 164.145 5.73041C164.273 5.98108 164.431 6.21041 164.617 6.41841C164.804 6.62108 165.023 6.78908 165.273 6.92241L164.809 7.55441C164.436 7.35175 164.124 7.07175 163.873 6.71441C163.628 6.35175 163.444 5.94375 163.321 5.49041C163.199 5.03708 163.137 4.56775 163.137 4.08241V3.78641ZM161.721 3.13841H165.025V3.82641H161.721V3.13841ZM162.985 2.09841H163.785V3.67441H162.985V2.09841ZM167.017 1.84241H167.817V9.15441H167.017V1.84241ZM165.553 1.99441H166.337V8.80241H165.553V1.99441ZM171.617 3.83441H173.169V4.50641H171.617V3.83441ZM171.561 5.65841H173.153V6.33841H171.561V5.65841ZM174.233 1.84241H175.033V9.15441H174.233V1.84241ZM172.745 2.01841H173.537V8.80241H172.745V2.01841ZM171.113 2.73841H171.913C171.913 3.40508 171.827 4.03441 171.657 4.62641C171.486 5.21308 171.201 5.75708 170.801 6.25841C170.406 6.75975 169.878 7.21041 169.217 7.61041L168.737 7.01041C169.297 6.67441 169.75 6.29841 170.097 5.88241C170.449 5.46641 170.705 5.01041 170.865 4.51441C171.03 4.01841 171.113 3.48241 171.113 2.90641V2.73841ZM169.097 2.73841H171.409V3.41841H169.097V2.73841ZM178.702 2.29841H183.27V2.97041H178.702V2.29841ZM177.902 5.42641H184.51V6.10641H177.902V5.42641ZM180.758 5.89841H181.606V9.16241H180.758V5.89841ZM182.862 2.29841H183.686V2.93841C183.686 3.19441 183.681 3.46641 183.67 3.75441C183.665 4.04241 183.641 4.35975 183.598 4.70641C183.561 5.04775 183.497 5.42641 183.406 5.84241L182.574 5.73841C182.718 5.14108 182.801 4.61841 182.822 4.17041C182.849 3.72241 182.862 3.31175 182.862 2.93841V2.29841ZM187.981 5.97041H188.813V7.08241H187.981V5.97041ZM185.101 5.49041H191.709V6.16241H185.101V5.49041ZM185.829 6.89841H190.901V9.13841H190.061V7.56241H185.829V6.89841ZM187.981 1.82641H188.813V2.87441H187.981V1.82641ZM187.941 2.95441H188.677V3.09041C188.677 3.37841 188.605 3.64241 188.461 3.88241C188.317 4.11708 188.112 4.32241 187.845 4.49841C187.584 4.67441 187.269 4.81841 186.901 4.93041C186.539 5.03708 186.136 5.10908 185.693 5.14641L185.445 4.51441C185.835 4.48241 186.181 4.42641 186.485 4.34641C186.795 4.26108 187.056 4.15441 187.269 4.02641C187.488 3.89841 187.653 3.75441 187.765 3.59441C187.883 3.43441 187.941 3.26641 187.941 3.09041V2.95441ZM188.125 2.95441H188.861V3.09041C188.861 3.26641 188.917 3.43441 189.029 3.59441C189.141 3.75441 189.304 3.89841 189.517 4.02641C189.736 4.15441 189.997 4.26108 190.301 4.34641C190.611 4.42641 190.963 4.48241 191.357 4.51441L191.101 5.14641C190.664 5.10908 190.261 5.03708 189.893 4.93041C189.531 4.81841 189.216 4.67441 188.949 4.49841C188.688 4.32241 188.485 4.11708 188.341 3.88241C188.197 3.64241 188.125 3.37841 188.125 3.09041V2.95441ZM185.757 2.53841H191.053V3.19441H185.757V2.53841Z" fill="#62C0B4"/>
<path d="M10.8481 28.3248H6.04808V26.6768H10.8481V28.3248ZM7.23208 30.5328H3.28008V28.9008H13.6161V30.5328H9.44008C9.32274 30.9382 9.08808 31.3115 8.73608 31.6528L8.88008 31.6848L9.47208 31.3008C9.72808 31.1408 9.99474 31.0608 10.2721 31.0608C10.4214 31.0608 10.5921 31.0875 10.7841 31.1408L14.2241 32.3408L13.1521 33.8288L9.05608 32.2288C8.90674 32.1648 8.73074 32.1328 8.52808 32.1328C8.31474 32.1328 8.12808 32.1702 7.96808 32.2448L7.80808 32.3248C6.89074 32.8368 5.51474 33.3435 3.68008 33.8448L2.65608 32.4048C3.92541 32.0955 4.92808 31.7915 5.66408 31.4928C6.41074 31.1835 6.93341 30.8635 7.23208 30.5328ZM9.50408 35.8288V36.4688C10.7307 36.5648 11.6747 36.8368 12.3361 37.2848C12.9974 37.7328 13.3281 38.3195 13.3281 39.0448C13.3281 39.8662 12.9014 40.5062 12.0481 40.9648C11.1947 41.4235 9.99474 41.6528 8.44808 41.6528C6.89074 41.6528 5.68541 41.4235 4.83208 40.9648C3.97874 40.5062 3.55208 39.8662 3.55208 39.0448C3.55208 38.3195 3.88274 37.7328 4.54408 37.2848C5.21608 36.8368 6.16541 36.5648 7.39208 36.4688V35.8288H1.84008V34.1648H15.0561V35.8288H9.50408ZM8.44808 37.9888C7.54141 37.9888 6.86408 38.0795 6.41608 38.2608C5.97874 38.4315 5.76008 38.6662 5.76008 38.9648V39.1248C5.76008 39.4128 5.97874 39.6422 6.41608 39.8128C6.86408 39.9942 7.54141 40.0848 8.44808 40.0848C9.35474 40.0848 10.0267 39.9942 10.4641 39.8128C10.9014 39.6422 11.1201 39.4128 11.1201 39.1248V38.9648C11.1201 38.6662 10.9014 38.4315 10.4641 38.2608C10.0267 38.0795 9.35474 37.9888 8.44808 37.9888ZM29.1467 31.6048H27.0347V34.7088H24.8907V26.5328H27.0347V29.8128H29.1467V31.6048ZM23.8507 33.5248C22.016 33.8768 19.8614 34.0528 17.3867 34.0528H15.9307V27.3008H18.0587V32.2928C20.1814 32.2608 22.0267 32.0955 23.5947 31.7968L23.8507 33.5248ZM17.8347 35.4128H27.0347V41.3168H19.1947C18.288 41.3168 17.8347 40.8635 17.8347 39.9568V35.4128ZM19.9467 39.6048H24.9227V37.1248H19.9467V39.6048Z" fill="#009BB4"/>
<path d="M62.6004 41.9968H52.4804L42.0404 21.8768H41.8804C41.9337 22.4902 41.9871 23.2368 42.0404 24.1168C42.0937 24.9702 42.1337 25.8368 42.1604 26.7168C42.2137 27.5968 42.2404 28.3968 42.2404 29.1168V41.9968H35.4004V13.4368H45.4804L55.8804 33.2768H56.0004C55.9737 32.6635 55.9337 31.9435 55.8804 31.1168C55.8271 30.2902 55.7871 29.4502 55.7604 28.5968C55.7337 27.7435 55.7204 26.9968 55.7204 26.3568V13.4368H62.6004V41.9968Z" fill="#003B90"/>
<path d="M81.4561 31.4288H79.3441V34.5008H77.2001V26.5328H79.3441V29.6368H81.4561V31.4288ZM69.0721 34.6928L67.4881 33.3328C68.5974 32.5755 69.4187 31.8555 69.9521 31.1728C70.4854 30.4795 70.7734 29.7595 70.8161 29.0128H68.0481V27.2528H75.7281V29.0128H72.9441C72.9334 29.8342 72.7254 30.6128 72.3201 31.3488L72.4161 31.4128L72.8641 31.0928C73.0454 30.9648 73.2321 30.9008 73.4241 30.9008C73.6054 30.9008 73.8027 30.9702 74.0161 31.1088L76.3521 33.0128L74.7681 34.4048L72.2721 32.2288C72.1547 32.1542 72.0534 32.1168 71.9681 32.1168C71.8934 32.1168 71.8134 32.1488 71.7281 32.2128C71.4187 32.6075 71.0507 33.0022 70.6241 33.3968C70.1974 33.7808 69.6801 34.2128 69.0721 34.6928ZM77.2321 35.2208H79.3441V41.3168H71.5361C70.6294 41.3168 70.1761 40.8635 70.1761 39.9568V35.2208H72.2881V36.5968H77.2321V35.2208ZM77.2321 38.2768H72.2881V39.6368H77.2321V38.2768ZM91.0187 29.4608H83.1947V27.6528H93.1467V28.8848C93.1467 30.1862 93.0774 31.4395 92.9387 32.6448C92.8107 33.8395 92.6454 34.8848 92.4427 35.7808L90.3627 35.4448C90.768 33.5568 90.9867 31.5622 91.0187 29.4608ZM94.7467 37.4128V39.2208H81.5307V37.4128H86.1387V32.7568H88.2827V37.4128H94.7467Z" fill="#62C0B4"/>
</svg>
